<svg width="74" height="80" viewBox="0 0 74 80" fill="none" xmlns="http://www.w3.org/2000/svg">
<path fill-rule="evenodd" clip-rule="evenodd" d="M53.9705 24.2859H52.7915C52.7915 42.8579 52.7915 61.429 52.7915 80C44.5177 80 36.245 80 27.9723 80C27.9723 61.6312 27.9723 43.2623 27.9723 24.8945H3.32829C2.15462 24.8945 1.06642 24.2785 0.465863 23.2665C-0.13364 22.2545 -0.155811 20.9991 0.406751 19.966L0.42046 19.9406L4.13257 12.9785C4.45343 12.3773 4.90301 11.811 5.35686 11.305C5.92681 10.6709 6.55272 10.0781 7.19233 9.51606C8.68897 8.20029 10.3186 6.9925 11.9525 5.85457C13.5737 4.7251 15.2329 3.64857 16.911 2.60908C18.11 1.86599 19.3217 1.13877 20.5439 0.435901C21.0484 0.145861 21.6226 0.00295766 22.2031 0.00295766H43.4053C44.0037 -0.0224473 44.599 0.116221 45.1257 0.403086L46.1326 0.950351H46.0281L49.7718 3.22198L57.3332 0.235836C57.7237 0.0812896 58.1406 0.00295766 58.5607 0.00295766H70.6795C71.5598 0.00295766 72.4052 0.353334 73.0268 0.977873C73.6496 1.60241 74 2.44924 74 3.33207V24.6024C74 25.4852 73.6496 26.3331 73.0268 26.9576C72.4052 27.5822 71.5598 27.9325 70.6795 27.9325H58.5607C57.5727 27.9325 56.6355 27.4943 56.0044 26.7343L53.9705 24.2859ZM46.1516 37.0487H34.6132C34.6132 49.1457 34.6132 61.2427 34.6132 73.3407H46.1516C46.1516 61.2427 46.1516 49.1457 46.1516 37.0487ZM67.3601 21.2733L67.3611 6.66223H59.1929L50.7313 10.075C49.7655 10.4645 48.6699 10.3809 47.777 9.84209L42.5134 6.66223H23.1319C21.6659 7.55035 20.2125 8.46069 18.7739 9.39432C17.3965 10.2877 16.0308 11.2034 14.6925 12.1539C13.6275 12.9097 12.5562 13.6962 11.5577 14.5409C11.2084 14.8363 10.859 15.1454 10.5403 15.4756C10.3577 15.6651 10.1318 15.9096 10.0062 16.1425L8.87581 18.2342H31.2928C32.173 18.2342 33.0185 18.5856 33.6401 19.2091C34.2629 19.8336 34.6132 20.6815 34.6132 21.5644V30.3883H46.1516V20.9568C46.1516 20.0739 46.5009 19.226 47.1237 18.6015C47.7464 17.977 48.5907 17.6266 49.471 17.6266H55.5304C56.5183 17.6266 57.4556 18.0648 58.0878 18.8259L60.1207 21.2733H67.3601Z" fill="#FF6900"/>
</svg>
