<svg width="88" height="81" viewBox="0 0 88 81" fill="none" xmlns="http://www.w3.org/2000/svg">
<path fill-rule="evenodd" clip-rule="evenodd" d="M0.826172 38.077C3.85902 36.7937 6.33312 34.7505 8.93744 32.2536C11.7749 29.5339 13.8329 27.3992 18.4907 27.3992C23.0149 27.3992 25.2364 29.5944 28.0316 32.2422C32.5111 36.4886 36.7758 39.5489 44.0014 39.5489C51.3104 39.5489 55.4563 36.5755 59.9622 32.2536C62.7984 29.5339 64.8565 27.4004 69.5132 27.4004C74.0385 27.4004 76.2588 29.5944 79.054 32.2422C81.632 34.6842 84.1369 36.7343 87.1743 38.0348C87.1743 35.0659 87.1743 32.0982 87.1743 29.1293C86.6178 28.6345 86.0636 28.1032 85.4831 27.5535C80.9807 23.2773 76.7868 20.2479 69.5132 20.2479C62.1894 20.2479 58.0675 23.2145 53.5536 27.5432C50.7105 30.2698 48.6707 32.3965 44.0014 32.3965C39.4636 32.3965 37.2627 30.2092 34.4618 27.5546C29.9742 23.3013 25.7301 20.2479 18.4896 20.2479C11.1658 20.2479 7.04504 23.2145 2.5312 27.5432C1.93811 28.1112 1.3804 28.6528 0.826172 29.1556C0.826172 32.1291 0.826172 35.1025 0.826172 38.077Z" fill="#FF6900"/>
<path fill-rule="evenodd" clip-rule="evenodd" d="M0.826172 58.3233C3.85902 57.0411 6.33312 54.9967 8.93744 52.4998C11.7749 49.7801 13.8341 47.6466 18.4907 47.6466C23.0149 47.6466 25.2364 49.8407 28.0316 52.4884C32.5111 56.7348 36.7758 59.7951 44.0014 59.7951C51.3104 59.7951 55.4563 56.8217 59.9622 52.501C62.7984 49.7801 64.8565 47.6466 69.5132 47.6466C74.0385 47.6466 76.26 49.8407 79.054 52.4884C81.632 54.9304 84.1369 56.9805 87.1743 58.281C87.1743 55.3133 87.1743 52.3456 87.1743 49.3778C86.6178 48.8819 86.0625 48.3494 85.4808 47.7974C80.9635 43.4984 76.8199 40.4953 69.5132 40.4953C62.1905 40.4953 58.0675 43.4607 53.5536 47.7894C50.7105 50.516 48.6718 52.6427 44.0014 52.6427C39.4636 52.6427 37.2627 50.4555 34.4618 47.8009C29.9742 43.5476 25.73 40.4941 18.4907 40.4941C11.1669 40.4941 7.04504 43.4607 2.5312 47.7894C1.93811 48.3574 1.3804 48.899 0.826172 49.4018C0.826172 52.3753 0.826172 55.3498 0.826172 58.3233Z" fill="#FF6900"/>
<path fill-rule="evenodd" clip-rule="evenodd" d="M0.826172 78.571C3.85902 77.2888 6.33309 75.2445 8.93855 72.7476C11.7748 70.0278 13.8341 67.8943 18.4907 67.8943C23.0172 67.8943 25.2364 70.0884 28.0316 72.7361C32.5111 76.9826 36.7781 80.0429 44.0025 80.0429C51.3115 80.0429 55.4563 77.0694 59.9622 72.7487C62.7984 70.0278 64.8565 67.8943 69.5132 67.8943C74.0385 67.8943 76.26 70.0884 79.054 72.7361C81.632 75.1782 84.1369 77.2283 87.1743 78.5287V69.6279C86.6167 69.1308 86.059 68.5971 85.4796 68.044C80.9464 63.7222 76.8542 60.743 69.5132 60.743C62.1905 60.743 58.0675 63.7085 53.5536 68.0372C50.7105 70.7638 48.6718 72.8916 44.0014 72.8916C39.4659 72.8916 37.2627 70.7032 34.4618 68.0486C29.9742 63.7953 25.73 60.7419 18.4907 60.7419C11.1669 60.7419 7.04504 63.7085 2.5312 68.0372C1.93811 68.6051 1.3804 69.1479 0.826172 69.6496V78.571Z" fill="#FF6900"/>
<path fill-rule="evenodd" clip-rule="evenodd" d="M0.826172 17.828C3.85902 16.5458 6.33312 14.5026 8.93744 12.0057C11.7749 9.28595 13.8329 7.1513 18.4896 7.1513C23.0149 7.1513 25.2364 9.34652 28.0304 11.9943C32.5111 16.2407 36.7758 19.301 44.0014 19.301C51.3104 19.301 55.4552 16.3276 59.9622 12.0057C62.7984 9.28595 64.8565 7.15245 69.5132 7.15245C74.0385 7.15245 76.2588 9.34652 79.054 11.9943C81.6297 14.4363 84.1369 16.4853 87.1743 17.7868V8.87913C86.619 8.38433 86.0647 7.85523 85.4865 7.30672C80.9978 3.05342 76.7525 0 69.5132 0C62.1894 0 58.0675 2.96657 53.5525 7.29529C50.7105 10.0219 48.6707 12.1485 44.0014 12.1485C39.4636 12.1485 37.2627 9.96131 34.4618 7.30672C29.9731 3.05342 25.7289 0 18.4896 0C11.1658 0 7.04504 2.96657 2.5312 7.29529C1.93811 7.86323 1.3804 8.4049 0.826172 8.90656V17.828Z" fill="#FF6900"/>
</svg>
