<svg width="80" height="80" viewBox="0 0 80 80" fill="none" xmlns="http://www.w3.org/2000/svg">
<path fill-rule="evenodd" clip-rule="evenodd" d="M51.5715 6.61967V15.7542H43.3093V20.2673H64.4984V33.7391H57.8766V26.888H22.1213V33.7391H15.4995V20.2673H36.6886V15.7542H28.4264V6.61967H0V0H80V6.61967H51.5715ZM44.9498 9.13453V6.62177H35.0492V9.13453H44.9498Z" fill="#FF6900"/>
<path fill-rule="evenodd" clip-rule="evenodd" d="M22.8615 61.4963V33.8223H56.9773V61.4963L70.8459 61.4994C75.9103 61.5542 80.0004 65.6884 80.0004 70.7476C80.0004 75.81 75.9135 79.9411 70.8469 80L9.15599 79.9947C4.09048 79.94 0.00146484 75.8068 0.00146484 70.7466C0.00146484 65.6874 4.09154 61.552 9.15599 61.4984L22.8615 61.4963ZM48.7888 68.1181C49.0413 68.9683 49.1697 69.8543 49.1686 70.7487C49.1675 71.6441 49.0392 72.5291 48.7856 73.3803H61.8787C61.6251 72.5291 61.4957 71.6441 61.4957 70.7476C61.4957 69.8521 61.6251 68.9683 61.8776 68.1181H48.7888ZM70.747 73.3793C72.197 73.3793 73.3797 72.1976 73.3797 70.7476C73.3797 69.2976 72.1959 68.1181 70.747 68.1181C69.298 68.1181 68.1174 69.2987 68.1174 70.7476C68.1174 72.1976 69.297 73.3793 70.747 73.3793ZM37.2877 70.7476C37.2877 72.1976 38.4673 73.3803 39.9183 73.3803C41.3683 73.3803 42.5489 72.1976 42.5489 70.7476C42.5489 69.2987 41.3673 68.1181 39.9183 68.1181C38.4683 68.1181 37.2877 69.2976 37.2877 70.7476ZM31.05 73.3803C30.7964 72.5291 30.667 71.6441 30.667 70.7476C30.667 69.8521 30.7964 68.9683 31.05 68.1181H18.1211C18.3736 68.9683 18.502 69.8532 18.502 70.7476C18.502 71.6441 18.3736 72.5291 18.12 73.3803H31.05ZM6.61798 70.7476C6.61798 72.1965 7.79964 73.3793 9.24858 73.3793C10.6986 73.3793 11.8792 72.1976 11.8792 70.7476C11.8792 69.2976 10.6986 68.1181 9.24858 68.1181C7.79964 68.1181 6.61798 69.2987 6.61798 70.7476ZM50.3545 40.4419C43.397 40.4419 36.4386 40.4419 29.4811 40.4419V61.3142H50.3545C50.3545 54.3568 50.3545 47.3994 50.3545 40.4419Z" fill="#FF6900"/>
</svg>
