<svg width="80" height="80" viewBox="0 0 80 80" fill="none" xmlns="http://www.w3.org/2000/svg">
<path d="M52.1662 35.1343L25.4993 58.4663L15.4997 45.1339L0 58.4663V79.9985H79.9989V35.4L62.3321 48.7325L52.1662 35.1343ZM73.3311 73.3329H6.66677V61.5334L14.4674 54.8667L24.467 68.2002L51.134 44.8671L61.1336 58.0005L73.3322 48.7335L73.3311 73.3329Z" fill="#FF6900"/>
<path d="M0 0.00146484V50.5659L14.4663 38.1662L24.467 51.4986L51.133 28.1666L61.1336 41.3L80 27.0665V0.00146484H0ZM73.3311 23.7337L62.3321 32.0002L52.3325 18.4666L25.6655 41.7997L15.6659 28.4662L6.66574 36.0667V6.66716H73.3311V23.7337Z" fill="#FF6900"/>
</svg>
