<svg width="118" height="80" viewBox="0 0 118 80" fill="none" xmlns="http://www.w3.org/2000/svg">
<path fill-rule="evenodd" clip-rule="evenodd" d="M65.6089 45.1779H110.375V55.1319H117.055V0H65.6089V45.1779ZM72.2894 6.68048H110.375V38.4985L72.2894 38.4995V6.68048Z" fill="#FF6900"/>
<path fill-rule="evenodd" clip-rule="evenodd" d="M57.3659 13.6308H30.2617L20.4134 38.2483L0.945312 43.117V70.0514H16.2996L16.6861 71.1383C18.5642 76.4222 23.5193 80 29.1556 80C34.7919 80 39.747 76.4222 41.624 71.1383L42.0105 70.0514H75.9905L76.377 71.1372C78.2583 76.419 83.2102 80 88.8465 80C94.486 80 99.4336 76.4201 101.317 71.1372L101.703 70.0514L117.055 70.0524V63.3751L101.701 63.3762L101.314 62.2893C99.4315 56.9958 94.4806 53.4265 88.8443 53.4265C83.2091 53.4265 78.2572 56.9958 76.3759 62.2893L75.9894 63.3762H57.3659V13.6308ZM50.6865 63.3762H42.0105L41.624 62.2882C39.7459 56.9915 34.7908 53.4265 29.1556 53.4265C23.5204 53.4265 18.5653 56.9925 16.6861 62.2882L16.2996 63.3762H7.6226V48.3294L20.2287 45.1808H50.6854L50.6865 63.3762ZM88.8465 73.3249C85.2025 73.3249 82.2396 70.3599 82.2396 66.717C82.2396 63.0677 85.1971 60.108 88.8465 60.108C92.4958 60.108 95.4543 63.0677 95.4543 66.717C95.4543 70.361 92.4905 73.3249 88.8465 73.3249ZM29.1567 73.3227C25.5148 73.3227 22.5477 70.3589 22.5477 66.7159C22.5477 63.0677 25.5095 60.108 29.1567 60.108C32.8039 60.108 35.7646 63.0687 35.7646 66.7159C35.7646 70.3578 32.7985 73.3227 29.1567 73.3227ZM50.6865 38.5014H27.5103L34.7823 20.3102L50.6865 20.3113V38.5014Z" fill="#FF6900"/>
</svg>
