<svg width="80" height="80" viewBox="0 0 80 80" fill="none" xmlns="http://www.w3.org/2000/svg">
<path fill-rule="evenodd" clip-rule="evenodd" d="M42.8477 69.418V50.499H69.574V69.418H42.8477ZM49.5105 57.1639V62.7574H62.9133V57.1639H49.5105Z" fill="#FF6900"/>
<path fill-rule="evenodd" clip-rule="evenodd" d="M80.0001 0L80.0011 80H79.277C53.0927 80 26.9074 80 0.723225 80H-0.000976562L8.32326e-05 0H80.0001ZM34.6819 6.66067V23.2568L36.9868 22.0191L40.0011 23.7311L43.0123 22.018L45.3193 23.2589V6.66067H34.6819ZM6.66077 6.66067C6.66394 18.4711 6.73487 30.2837 6.75816 42.0953C6.77299 49.4569 6.78568 56.8195 6.77086 64.1821C6.76556 66.5717 6.76029 68.9624 6.73593 71.352C6.73276 71.6707 6.79946 72.5516 6.73805 73.3393C20.2733 73.3404 33.8095 73.369 47.3447 73.3838C53.4866 73.3902 59.6274 73.3965 65.7682 73.3912C68.0837 73.388 70.9615 73.5246 73.3363 73.3902V6.66067H51.98V27.5077L46.5623 31.4929L43.1001 29.6305L39.998 31.3933L36.8958 29.6305L33.4337 31.4929L28.0181 27.5077V6.66067H6.66077Z" fill="#FF6900"/>
</svg>
