<svg width="80" height="80" viewBox="0 0 80 80" fill="none" xmlns="http://www.w3.org/2000/svg">
<path fill-rule="evenodd" clip-rule="evenodd" d="M79.5 50.7503V43.8433H69.6731L69.6142 43.4338C69.2226 40.68 68.4231 38.2021 67.1872 35.7198L66.8436 35.03H74.6875L79.3746 20.9159L72.8353 18.7271L69.1714 28.123H61.2337L60.5247 27.4123L60.5455 27.1901C60.9578 22.635 60.0841 18.1862 57.7258 14.24L57.6287 14.0768L57.6691 13.8907C58.5002 10.1371 61.7257 7.52895 65.4878 7.32529V0C60.2248 0.173004 55.5671 3.20823 52.7638 7.63187L52.5031 8.04248L52.1006 7.77203C44.8414 2.91478 35.9832 2.91478 28.724 7.77203L28.3455 8.02606L28.0772 7.65596C24.9532 3.34401 20.3239 0.176289 14.9234 0V6.91248C18.6855 7.11505 21.9121 9.72434 22.7422 13.4779L22.7836 13.6629L22.6865 13.8261C20.3544 17.7285 19.0379 22.185 19.8614 26.7335L19.9061 26.9798L18.7663 28.123H10.8144L7.56173 18.7326L1.03776 20.9148L5.72485 35.03H13.5687L13.2251 35.7198C12.047 38.0871 11.2289 40.842 10.7959 43.4447L10.7305 43.8433H0.5V50.7492H9.9331L9.97564 51.1784C10.3869 55.3021 11.6216 59.3666 13.6276 62.992L14.0192 63.6993L5.72485 63.7004L1.03776 77.8145L7.56719 80L10.8199 71.0202H19.5811L19.7174 71.1483C31.0747 81.7344 48.513 81.7344 59.8703 71.1483L60.0066 71.0202H69.1943L72.039 79.9934L78.5499 77.8145L73.8628 63.7004H65.5674L65.9601 62.992C67.966 59.3677 69.1997 55.3032 69.611 51.1795L69.6535 50.7503H79.5ZM23.593 65.2158C18.7335 60.3378 16.3065 53.5403 17.0166 46.6793C17.7562 39.5489 21.7321 33.4565 27.8012 29.7227L28.5048 29.2891L28.5244 30.118C28.6128 34.0226 28.7469 37.9294 28.808 41.8341C28.8527 44.762 28.8582 47.7239 28.6259 50.6441C28.4273 53.1286 28.0423 55.5594 27.3464 57.9541C26.6177 60.4561 25.5815 62.8157 24.3456 65.1053L24.0424 65.667L23.593 65.2158ZM30.2489 68.9529C31.7728 66.3119 33.0326 63.5767 33.926 60.6531C34.8095 57.7635 35.296 54.8137 35.5611 51.8059C35.8763 48.2385 35.9068 44.6196 35.9003 41.0402C35.8927 36.3001 35.8174 31.56 35.8174 26.82V26.4159L36.2133 26.3491C38.732 25.9276 41.2691 25.9276 43.7877 26.3491L44.1837 26.4159V26.82C44.1837 31.4834 44.1073 36.1446 44.0997 40.8081C44.0943 44.3623 44.127 47.9527 44.44 51.4949C44.7084 54.5312 45.1992 57.5029 46.0762 60.4232C47.0012 63.5044 48.3134 66.3973 49.8918 69.1938L50.1601 69.6691L49.6551 69.8716C43.3613 72.3988 36.6398 72.3988 30.3449 69.8716L28.0565 68.9529H30.2489ZM51.793 29.3121C57.7334 33.0897 61.7311 39.2281 62.571 46.2577C62.967 49.5689 62.6288 52.9501 61.5512 56.1069C60.4167 59.4257 58.51 62.3799 55.9892 64.8085L55.5322 65.2487L55.2399 64.6848C54.0946 62.4817 53.1412 60.2217 52.4737 57.826C51.8214 55.4871 51.4669 53.1132 51.2727 50.6967C51.036 47.7589 51.0131 44.7806 51.0131 41.8352C51.0131 37.7948 51.0644 33.7554 51.0644 29.715V28.8489L51.793 29.3121ZM52.1693 21.8762C43.8706 18.1271 35.7541 18.2913 27.4118 21.8795L26.5326 22.2584L26.765 21.3255C27.5427 18.2026 29.2487 15.4992 31.8611 13.6082C34.2052 11.911 37.0652 11.0361 39.9493 11.0361C42.8126 11.0361 45.653 11.8989 47.9644 13.6115C50.5321 15.5134 52.1497 18.2267 52.8271 21.3397L53.0289 22.2649L52.1693 21.8762Z" fill="#FF6900"/>
</svg>
