<svg width="177" height="35" viewBox="0 0 177 35" fill="none" xmlns="http://www.w3.org/2000/svg">
<path fill-rule="evenodd" clip-rule="evenodd" d="M17.0513 5.83826C7.69162 5.83826 0 12.2325 0 20.1094C0 27.9864 7.59895 34.3806 17.0513 34.3806C25.7623 34.3806 32.9905 28.8204 33.9172 21.6848H23.2602C22.5188 24.4649 20.1094 26.5037 17.144 26.5037C13.6225 26.5037 10.8424 23.6309 10.8424 20.1094C10.8424 16.588 13.7152 13.7152 17.144 13.7152C20.1094 13.7152 22.5188 15.7539 23.2602 18.4414H34.0099C32.9906 11.3058 25.855 5.83826 17.0513 5.83826Z" fill="#63666A"/>
<path fill-rule="evenodd" clip-rule="evenodd" d="M175.887 0L163.377 19.1827L158.002 10.8424L165.045 0H175.887Z" fill="#63666A"/>
<path fill-rule="evenodd" clip-rule="evenodd" d="M177 33.5466H166.065L160.69 25.1136L162.915 21.6848H169.309L177 33.5466Z" fill="#63666A"/>
<path fill-rule="evenodd" clip-rule="evenodd" d="M52.6372 5.83826C43.2776 5.83826 35.5859 12.2325 35.5859 20.1094C35.5859 27.9864 43.1849 34.3806 52.6372 34.3806C61.9969 34.3806 69.6885 27.9864 69.6885 20.1094C69.5959 12.2325 61.9969 5.83826 52.6372 5.83826ZM52.6372 13.7152C56.1587 13.7152 58.9388 16.588 58.9388 20.1094C58.9388 23.6309 56.066 26.5037 52.6372 26.5037C49.1158 26.5037 46.3357 23.6309 46.3357 20.1094C46.243 16.588 49.1158 13.7152 52.6372 13.7152Z" fill="#63666A"/>
<path fill-rule="evenodd" clip-rule="evenodd" d="M122.788 5.83826C125.939 5.83826 128.904 6.67228 131.406 8.06233L131.777 6.67228H140.766V33.4539H131.869L131.406 32.0639C128.904 33.5466 125.939 34.3806 122.695 34.3806C113.891 34.3806 106.756 27.9864 106.756 20.1094C106.849 12.2325 113.984 5.83826 122.788 5.83826ZM124.085 13.7152C120.471 13.7152 117.506 16.588 117.506 20.1094C117.506 23.6309 120.471 26.5037 124.085 26.5037C127.699 26.5037 130.665 23.6309 130.665 20.1094C130.665 16.588 127.699 13.7152 124.085 13.7152Z" fill="#63666A"/>
<path fill-rule="evenodd" clip-rule="evenodd" d="M89.2417 5.83822C86.0909 5.83822 83.1254 6.67224 80.6234 8.06229V0H71.2637V33.5466H80.16L80.6234 32.1565C83.1254 33.6392 86.0909 34.4733 89.3343 34.4733C98.138 34.4733 105.274 28.079 105.274 20.2021C105.181 12.2325 98.0453 5.83822 89.2417 5.83822ZM88.037 13.7152C91.6511 13.7152 94.6165 16.5879 94.6165 20.1094C94.6165 23.6309 91.6511 26.5036 88.037 26.5036C84.4228 26.5036 81.4574 23.6309 81.4574 20.1094C81.4574 16.5879 84.3302 13.7152 88.037 13.7152Z" fill="#63666A"/>
<path fill-rule="evenodd" clip-rule="evenodd" d="M151.146 20.1094L142.435 33.5466H153.277L161.988 20.1094L153.37 6.67224H142.435L151.146 20.1094Z" fill="#FF6900"/>
</svg>
