<svg width="136" height="22" viewBox="0 0 136 22" fill="none" xmlns="http://www.w3.org/2000/svg">
<path fill-rule="evenodd" clip-rule="evenodd" d="M14.5799 0.746933V4.71685C12.692 4.05814 10.6276 3.66997 8.98084 3.66997C6.94589 3.66997 5.81666 4.28751 5.81666 5.40497C5.81666 6.11661 6.3107 6.58712 7.73399 7.22231L11.5569 8.93378C14.6152 10.3041 16.1502 12.3097 16.1502 14.9151C16.1502 18.9321 12.6743 21.467 7.1635 21.467C5.15207 21.467 2.82893 21.1788 0.364644 20.62V16.5207C2.80541 17.1853 5.04033 17.5382 6.78121 17.5382C9.05729 17.5382 10.2806 16.903 10.2806 15.7209C10.2806 15.0092 9.80423 14.4858 8.71029 13.9976L4.52865 12.1391C1.42917 10.757 0 8.8985 0 6.24012C0 2.43488 3.35237 0.0117627 8.61031 0.0117627C10.4512 0.0117627 12.7155 0.294068 14.5799 0.746933ZM19.1203 0.429339H25.2957V21.0553H19.1203V0.429339ZM45.3865 0.429339V4.20517H36.0586V8.85733H44.2043V12.2744H36.0586V17.0971H45.5041V21.0494H30.0596V0.429339H45.3865ZM74.5756 0.429339V21.0553H68.6002V7.47521L62.7423 21.2082H58.9606L53.144 7.47521V21.0494H49.0153V0.429339H56.561L61.8954 12.9743L67.2004 0.429339H74.5756ZM94.6781 0.429339V4.20517H85.3385V8.85733H93.4842V12.2744H85.3385V17.0971H94.784V21.0494H79.3219V0.429339H94.6781ZM116.439 0.429339V21.0553H109.846L102.424 7.82809V21.0553H98.2952V0.429339H105.065L112.322 13.4801V0.429339H116.439ZM134.366 0.746933V4.71685C132.495 4.06402 130.413 3.66997 128.796 3.66997C126.732 3.66997 125.602 4.28163 125.602 5.39909C125.602 6.12838 126.061 6.5636 127.531 7.22231L131.337 8.93378C134.413 10.3218 135.936 12.3097 135.936 14.9387C135.936 18.9321 132.454 21.4611 126.955 21.4611C124.944 21.4611 122.609 21.1729 120.15 20.6142V16.5149C122.591 17.1795 124.82 17.5323 126.549 17.5323C128.814 17.5323 130.066 16.8971 130.066 15.7503C130.066 14.9916 129.625 14.5034 128.484 13.9918L124.32 12.1274C121.203 10.7335 119.786 8.89261 119.786 6.22836C119.786 2.429 123.138 0 128.384 0C130.231 0.0117627 132.507 0.294068 134.366 0.746933Z" fill="#00A0B0"/>
</svg>
