<svg width="134" height="36" viewBox="0 0 134 36" fill="none" xmlns="http://www.w3.org/2000/svg">
<path d="M37.9454 14.2658C37.4429 12.1929 36.9403 10.12 36.4378 7.98434C36.375 8.10997 36.3122 8.17279 36.2808 8.2356C33.3599 13.6377 30.4076 19.0083 27.4867 24.4104C27.3925 24.5988 27.2669 24.6617 27.047 24.6617C23.2467 24.6617 19.4464 24.6617 15.6776 24.6617C15.3949 24.6617 15.3635 24.6303 15.4263 24.3476C15.6461 22.7772 15.866 21.1754 16.0858 19.6051C16.2743 18.1603 16.4941 16.7156 16.6826 15.2709C16.714 15.1138 16.714 14.9882 16.7454 14.7997C13.8245 14.7997 10.9036 14.7997 7.95134 14.7997C7.85711 15.4907 7.76289 16.1503 7.66867 16.8412C7.44882 18.4116 7.22897 20.0134 7.00911 21.5837C6.88349 22.4946 6.75786 23.4368 6.63223 24.3476C6.60082 24.536 6.538 24.6303 6.31815 24.6303C4.59075 24.6303 2.89475 24.6303 1.16734 24.6303C0.884677 24.6303 0.884677 24.5988 0.916084 24.3476C1.23016 21.8978 1.57564 19.448 1.92112 16.9669C2.29801 14.203 2.7063 11.4706 3.08319 8.70671C3.46008 6.13131 3.80556 3.5559 4.15104 0.94909C4.18245 0.792053 4.21386 0.603608 4.21386 0.446571C4.21386 0.258127 4.30808 0.195312 4.49653 0.195312C5.50156 0.195312 6.5066 0.195312 7.51163 0.195312C8.234 0.195312 8.95637 0.195312 9.64733 0.195312C9.74156 0.195312 9.83578 0.195313 9.96141 0.22672C9.5217 3.33605 9.082 6.44538 8.67371 9.55471C11.5946 9.55471 14.5155 9.55471 17.4678 9.55471C17.5306 9.05219 17.6248 8.54967 17.6876 8.01575C17.9389 6.22553 18.1901 4.46672 18.4414 2.6765C18.5356 1.95413 18.6613 1.23176 18.7241 0.509386C18.7555 0.289535 18.8183 0.195312 19.0695 0.195312C20.797 0.195312 22.5244 0.195312 24.2518 0.195312C24.5344 0.195312 24.5344 0.195312 24.503 0.477979C24.2518 2.36242 23.9691 4.24686 23.7178 6.16271C23.4666 7.95293 23.2153 9.71175 22.9641 11.502C22.7128 13.2922 22.4615 15.051 22.2103 16.8412C21.9904 18.5058 21.7392 20.2018 21.4879 21.8664C21.4251 22.3061 21.3623 22.7772 21.2995 23.2169C21.2995 23.2797 21.2995 23.3426 21.3309 23.4054C21.4879 23.1227 21.645 22.8714 21.802 22.5888C25.5709 15.8362 29.3398 9.0836 33.1401 2.36242C33.9252 0.94909 35.1815 0.258127 36.7833 0.22672C37.38 0.22672 38.0082 0.163905 38.6049 0.258127C39.8612 0.446572 40.772 1.20035 41.1489 2.45664C42.5623 7.48182 43.9442 12.507 45.3575 17.5636C45.9857 19.8249 46.6452 22.1177 47.2734 24.379C47.3676 24.6931 47.3362 24.6931 47.0221 24.6931C45.012 24.6931 43.0334 24.6931 41.0233 24.6931C40.8035 24.6931 40.7092 24.6303 40.6464 24.4104C40.2067 22.8714 39.7356 21.3325 39.2959 19.8249C39.2331 19.6365 39.1703 19.5737 38.9818 19.5737C36.5949 19.5737 34.1765 19.5737 31.7895 19.5737C31.4755 19.5737 31.4441 19.5423 31.6011 19.2596C32.4805 17.6578 33.3913 16.0874 34.2707 14.4857C34.3649 14.3286 34.4592 14.2658 34.6476 14.2658C35.7155 14.2658 36.8147 14.2658 37.8826 14.2658C37.8512 14.2658 37.8826 14.2658 37.9454 14.2658Z" fill="#005099"/>
<path d="M127.578 15.3652C127.892 16.0562 128.206 16.7157 128.489 17.4067C129.557 19.7309 130.593 22.055 131.661 24.3477C131.786 24.6304 131.755 24.6618 131.472 24.6618C129.431 24.6618 127.421 24.6618 125.379 24.6618C125.191 24.6618 125.097 24.599 125.002 24.4106C123.715 21.6781 122.458 18.9457 121.171 16.2446C121.045 15.9934 120.919 15.9306 120.668 15.9306C119.443 15.962 118.25 15.962 117.025 15.962C116.679 15.962 116.679 15.962 116.742 15.6165C116.962 14.1403 117.213 12.6642 117.433 11.1881C117.465 10.9996 117.527 10.9368 117.716 10.9368C119.475 10.9368 121.265 10.9368 123.024 10.9368C124.092 10.9368 125.065 10.6227 125.756 9.74331C126.51 8.76968 126.667 7.67043 126.29 6.53976C126.039 5.75458 125.317 5.31487 124.437 5.31487C122.05 5.31487 119.663 5.31487 117.245 5.31487C117.088 5.31487 117.025 5.34628 117.025 5.50332C116.711 7.67043 116.397 9.83753 116.083 12.0361C115.8 14.0775 115.486 16.1504 115.203 18.1919C114.921 20.2648 114.607 22.3377 114.324 24.4106C114.293 24.5676 114.23 24.6304 114.073 24.6304C112.345 24.6304 110.618 24.6304 108.89 24.6304C108.702 24.6304 108.671 24.5676 108.702 24.4106C108.953 22.7146 109.173 21.0186 109.424 19.3226C109.644 17.7522 109.864 16.1818 110.084 14.6115C110.272 13.1667 110.492 11.722 110.681 10.2772C110.901 8.70687 111.12 7.10509 111.34 5.53472C111.529 4.08998 111.749 2.64525 111.937 1.1691C111.968 0.886432 112 0.635173 112.031 0.352507C112.031 0.226877 112.094 0.164062 112.22 0.164062C112.282 0.164062 112.345 0.164062 112.408 0.164062C116.742 0.164062 121.077 0.164062 125.379 0.164062C126.918 0.164062 128.426 0.352507 129.839 0.949247C131.818 1.79725 132.917 3.3048 133.2 5.40909C133.451 7.35635 133.2 9.2722 132.32 11.0624C131.347 13.0411 129.776 14.3916 127.735 15.2082C127.766 15.271 127.672 15.3338 127.578 15.3652Z" fill="#005099"/>
<path d="M94.8556 24.9758C93.1281 24.9758 91.495 24.8188 89.8932 24.3476C87.1922 23.531 85.4962 21.7408 84.711 19.0398C84.2399 17.5008 84.1456 15.8991 84.2399 14.2973C84.3341 12.4128 84.5539 10.5598 85.1507 8.76958C86.6582 4.27833 89.6733 1.48307 94.2902 0.415223C96.0176 0.00692683 97.7764 -0.0558879 99.5353 0.0383342C100.98 0.101149 102.425 0.289593 103.775 0.760704C106.633 1.73433 108.235 3.80722 108.8 6.6967C109.115 8.26707 109.083 9.83744 108.957 11.4078C108.8 13.1352 108.486 14.8626 107.921 16.4958C107.23 18.4431 106.194 20.1705 104.686 21.5838C103.147 23.0285 101.357 23.9079 99.3154 24.4105C97.8079 24.8502 96.3003 25.0072 94.8556 24.9758ZM102.739 10.2457C102.739 9.46055 102.707 8.67536 102.519 7.92159C102.142 6.38262 101.168 5.409 99.5981 5.09492C98.2476 4.84366 96.9284 4.90648 95.6093 5.28337C94.2274 5.66025 93.1281 6.47685 92.343 7.70173C91.8404 8.48692 91.5264 9.36632 91.2751 10.2771C90.8982 11.6277 90.7412 13.041 90.647 14.4229C90.5842 15.3337 90.6156 16.2759 90.8354 17.1868C91.2123 18.7257 92.1545 19.6679 93.7249 19.982C94.8241 20.2019 95.9234 20.1705 96.9913 20.0448C98.279 19.8878 99.4096 19.3853 100.32 18.4431C100.98 17.7521 101.42 16.9669 101.765 16.0875C102.456 14.1717 102.676 12.2244 102.739 10.2457Z" fill="#005099"/>
<path d="M65.9869 33.8643C87.815 33.8643 109.675 33.8643 131.503 33.8643C131.911 33.8643 132.319 33.8957 132.665 34.2097C133.136 34.618 133.104 35.3404 132.571 35.7173C132.256 35.9371 131.88 35.9686 131.503 36C131.408 36 131.314 36 131.22 36C87.6266 36 44.0017 36 0.408296 36C0.345481 36 0.282666 36 0.219852 36C0.0628148 36 0 35.9371 0 35.7801C0 35.2148 0 34.6494 0 34.0841C0 33.8957 0.0628148 33.8643 0.219852 33.8643C0.345481 33.8643 0.439703 33.8643 0.565333 33.8643C22.3621 33.8643 44.1902 33.8643 65.9869 33.8643Z" fill="#005099"/>
<path d="M79.1461 24.6931C77.2617 24.6931 75.3773 24.6931 73.4928 24.6931C72.0481 24.6931 70.6033 24.4732 69.2842 23.8765C67.3056 23.0285 66.0493 21.5209 65.3897 19.5108C65.0128 18.3488 64.8244 17.1553 64.793 15.9304C64.7302 13.3864 65.0442 10.8738 65.798 8.42405C66.3319 6.69664 67.1485 5.09486 68.342 3.71294C69.8182 2.04835 71.6398 1.0119 73.8069 0.509386C74.7805 0.289535 75.7227 0.195312 76.7278 0.195312C79.5858 0.195312 82.4125 0.195312 85.2706 0.195312C85.5847 0.195312 85.5847 0.195312 85.5532 0.509386C85.3334 2.07976 85.1135 3.65012 84.8937 5.22049C84.8623 5.44034 84.7995 5.47175 84.5796 5.47175C81.8158 5.47175 79.0519 5.50316 76.2567 5.44034C75.0318 5.40894 74.121 5.91146 73.3672 6.82227C72.5506 7.7959 72.1109 8.95797 71.7968 10.1829C71.4199 11.7532 71.2001 13.355 71.2629 14.9882C71.2943 16.0874 71.4513 17.1867 71.9853 18.1603C72.2993 18.7257 72.7076 19.1654 73.3986 19.291C73.5242 19.3224 73.6184 19.3224 73.7441 19.3224C76.6964 19.3224 79.6801 19.3224 82.6324 19.3224C82.8522 19.3224 82.9464 19.3852 83.0721 19.5737C84.0143 21.144 84.9565 22.7144 85.8987 24.2848C85.9301 24.3476 85.9929 24.4104 85.9929 24.4732C85.9929 24.536 85.9301 24.5988 85.8987 24.6303C85.8359 24.6617 85.7731 24.6303 85.7103 24.6303C83.4804 24.6931 81.3133 24.6931 79.1461 24.6931Z" fill="#005099"/>
<path d="M60.7757 24.693C59.2053 24.693 57.6036 24.693 56.0332 24.693C54.7455 24.693 53.4578 24.5674 52.2329 24.1905C49.6889 23.4367 48.2128 21.7093 47.6788 19.1653C47.4276 17.9404 47.4276 16.7156 47.5846 15.4907C47.8987 12.9467 48.2756 10.3713 48.6211 7.82727C48.9665 5.4089 49.2806 2.95913 49.6261 0.540758C49.6575 0.320907 49.7203 0.226685 49.9716 0.226685C51.8874 0.226685 53.7719 0.226685 55.6877 0.226685C56.0018 0.226685 56.0018 0.226685 55.939 0.540758C55.6563 2.51942 55.3736 4.52949 55.1224 6.50816C54.9339 7.9529 54.7141 9.39764 54.5257 10.8738C54.2744 12.6326 54.0545 14.4228 53.8661 16.1816C53.8033 16.6841 53.8975 17.2181 53.9917 17.7206C54.2116 18.8513 54.9025 19.5108 56.0646 19.6993C56.4415 19.7621 56.787 19.7935 57.1639 19.7935C59.1739 19.7935 61.1526 19.7935 63.1627 19.7935C63.4139 19.7935 63.571 19.8563 63.6966 20.0761C64.6702 21.4895 65.6753 22.9028 66.6803 24.3161C66.7431 24.4104 66.8059 24.536 66.8373 24.6302C66.7117 24.6616 66.5861 24.693 66.4605 24.693C64.5446 24.693 62.6602 24.693 60.7757 24.693Z" fill="#005099"/>
</svg>
