<svg width="136" height="41" viewBox="0 0 136 41" fill="none" xmlns="http://www.w3.org/2000/svg">
<path d="M15.4639 5.84213C12.357 4.46126 10.507 3.93016 8.66583 3.93016C6.7273 3.93016 5.48806 4.62059 5.48806 5.69165C5.48806 8.91368 16.4288 8.0108 16.4288 15.4728C16.4288 19.5888 12.9766 21.9788 8.17898 21.9788C4.41701 21.9788 2.567 21.0051 0.433734 19.9075V15.2958C3.51413 17.3317 5.39069 18.0575 7.7718 18.0575C9.8254 18.0575 10.9407 17.3405 10.9407 16.0836C10.9407 12.5517 0 13.8441 0 6.16079C0 2.45192 3.20432 0 8.18783 0C10.5955 0 12.7642 0.504548 15.4639 1.66412V5.84213ZM30.7774 20.9874C28.954 21.6513 27.4138 21.9611 25.8736 21.9611C20.775 21.9611 17.4821 18.9958 17.4821 14.4814C17.4821 10.0467 20.9077 6.91319 25.6788 6.91319C27.1571 6.91319 29.0425 7.29381 30.5561 7.85147V11.2417C29.3611 10.6044 27.9803 10.2591 26.8472 10.2591C24.1121 10.2591 22.3506 11.9056 22.3506 14.4371C22.3506 17.013 24.0767 18.7037 26.6879 18.7037C27.7855 18.7037 28.7681 18.4558 30.7774 17.6946V20.9874ZM70.5127 12.8261C70.6986 10.8079 71.8671 9.64837 73.664 9.64837C75.4254 9.64837 76.6204 10.8433 76.8063 12.8261H70.5127ZM73.3453 6.92204C68.8752 6.92204 65.6886 10.0821 65.6886 14.5257C65.6886 19.0046 68.9991 21.97 74.0977 21.97C75.2307 21.97 77.957 21.97 80.5683 20.0403V17.2077C78.435 18.7302 77.0276 19.2525 75.2041 19.2525C72.3273 19.2525 70.5747 17.7654 70.4154 15.2249H80.825C81.0463 9.92277 77.5676 6.92204 73.3453 6.92204ZM82.5865 21.7044H87.1363V7.19644H82.5865V21.7044ZM99.8119 17.7388C98.8648 18.5886 98.077 18.9338 97.1033 18.9338C94.9612 18.9338 93.6069 17.1723 93.6069 14.5257C93.6069 11.6312 94.9612 9.95818 97.2626 9.95818C98.0858 9.95818 99.1569 10.3388 99.8208 10.8079V17.7388H99.8119ZM99.8119 0.265551V7.82491C98.5815 7.23185 97.36 6.91319 96.0322 6.91319C91.8808 6.91319 89.004 9.98473 89.004 14.4283C89.004 18.7745 91.8808 21.97 95.7755 21.97C97.3246 21.97 98.5107 21.5628 99.8119 20.5271V21.6956H104.362V0.265551H99.8119ZM111.098 12.8261C111.284 10.8079 112.452 9.64837 114.24 9.64837C116.002 9.64837 117.206 10.8433 117.4 12.8261H111.098ZM113.93 6.92204C109.46 6.92204 106.283 10.0821 106.283 14.5257C106.283 19.0046 109.593 21.97 114.692 21.97C115.825 21.97 118.56 21.97 121.171 20.0403V17.2077C119.038 18.7302 117.622 19.2525 115.789 19.2525C112.93 19.2525 111.169 17.7654 111.009 15.2249H121.419C121.631 9.92277 118.144 6.92204 113.93 6.92204Z" fill="#009E4D"/>
<path d="M128.222 11.3473H128.293C129.647 8.32885 131.161 6.91258 132.913 6.91258C133.825 6.91258 134.604 7.2578 135.932 8.24034L134.675 12.2679C133.48 11.5155 132.692 11.1968 131.975 11.1968C130.302 11.1968 129.24 12.7724 128.231 15.4368V21.6861H123.672V7.17813H128.231V11.3473H128.222ZM87.3535 1.08815C87.7783 2.21232 87.0082 3.78793 85.6362 4.59343C84.2554 5.39894 82.8037 5.14224 82.3788 4.01807C81.9451 2.88505 82.7152 1.3183 84.0872 0.512791C85.4592 -0.301566 86.9197 -0.0448668 87.3535 1.08815Z" fill="#009E4D"/>
<path d="M47.1809 12.4633C47.1809 8.53313 44.5077 6.92211 41.8698 6.92211C40.0729 6.92211 38.6036 7.67451 37.2847 9.34748H37.2227V0.265625H32.6641V21.6602H37.2227V12.4633C38.2849 10.9231 39.1966 10.2592 40.2677 10.2592C41.684 10.2592 42.6222 11.2683 42.6222 13.437V18.5356C44.1536 17.7478 45.7026 17.2698 47.1809 17.0927V12.4633ZM58.6084 6.92211C56.7496 6.92211 55.3333 7.61255 53.8816 9.26782V7.19652H49.323V17.0573C50.8986 17.2167 52.9168 17.9425 53.8816 19.1375V12.3571C55.0766 10.5602 55.9264 9.95825 57.0594 9.95825C58.3517 9.95825 59.3343 10.808 59.3343 12.8528V21.6602H63.8929V12.481C63.8929 8.20561 60.8745 6.92211 58.6084 6.92211ZM66.4068 25.8382H61.1135V29.6002H66.2209V31.2112H61.1135V35.0883H66.5661V36.6993H59.3431V24.2184H66.4156L66.4068 25.8382ZM70.7353 36.7081H72.3551V24.2184H70.7353V36.7081ZM80.3836 29.7153C81.5344 29.7153 82.2425 30.5119 82.2956 31.7512H78.1619C78.392 30.45 79.1356 29.7153 80.3836 29.7153ZM78.1353 32.8311H83.9155C83.9155 29.7861 82.5258 28.3167 80.3482 28.3167C78.0911 28.3167 76.5155 29.9897 76.5155 32.477C76.5155 34.7519 77.9317 36.8586 80.4899 36.8586C81.8796 36.8586 82.7825 36.5488 83.7739 35.8849V34.3093C82.809 34.9378 81.8796 35.3007 80.8971 35.3007C79.3214 35.3096 78.392 34.4686 78.1353 32.8311ZM94.5021 30.6359C93.5727 29.9985 92.9442 29.8126 92.2361 29.8126C90.749 29.8126 89.7222 30.9545 89.7222 32.6186C89.7222 34.3182 90.8198 35.345 92.5105 35.345C93.2098 35.345 93.8648 35.1679 94.688 34.7962V36.3983C94.1392 36.655 93.1036 36.8675 92.2449 36.8675C89.793 36.8675 88.0846 35.1768 88.0846 32.7691C88.0846 30.0428 89.6425 28.3256 92.1299 28.3256C93.077 28.3256 93.7232 28.5469 94.5021 28.8921V30.6359ZM101.893 28.476H104.496V29.9366H101.893V34.1588C101.893 35.1237 102.593 35.4069 103.062 35.4069C103.646 35.4069 104.257 35.2033 104.912 34.7962V36.3187C104.345 36.6285 103.469 36.8675 102.929 36.8675C101.167 36.8675 100.273 35.7698 100.273 34.2828V29.9366H98.8395V29.7595L101.884 26.7765L101.893 28.476ZM110.692 28.476V30.3792H110.727C111.551 28.9186 112.338 28.3167 113.108 28.3167C113.772 28.3167 114.383 28.6265 115.065 29.2727L114.206 30.6978C113.71 30.211 113.073 29.8746 112.692 29.8746C111.577 29.8746 110.701 31.0076 110.701 32.4151V36.7081H109.081V28.476H110.692ZM131.679 30.6359C130.741 29.9985 130.121 29.8126 129.404 29.8126C127.926 29.8126 126.899 30.9545 126.899 32.6186C126.899 34.3182 127.997 35.345 129.679 35.345C130.378 35.345 131.033 35.1679 131.865 34.7962V36.3983C131.308 36.655 130.263 36.8675 129.404 36.8675C126.953 36.8675 125.244 35.1768 125.244 32.7691C125.244 30.0428 126.811 28.3256 129.298 28.3256C130.254 28.3256 130.883 28.5469 131.679 28.8921V30.6359ZM119.367 36.7081H120.986V28.476H119.367V36.7081Z" fill="#009E4D"/>
<path d="M121.035 25.5187C121.195 25.917 120.92 26.4747 120.434 26.7668C119.947 27.05 119.424 26.9615 119.274 26.5632C119.123 26.1649 119.398 25.6072 119.885 25.3151C120.372 25.023 120.885 25.1115 121.035 25.5187ZM48.4514 26.1826C48.1682 26.1826 48.0442 26.2268 47.9292 26.3596C47.8849 26.4127 47.8672 26.4658 47.8495 26.5632L46.3978 32.0778C46.0526 34.0163 43.6803 35.946 40.5822 35.946H36.2803L37.0238 33.1135H39.7856C40.0688 33.1135 40.2901 33.0072 40.476 32.8036C40.5468 32.724 40.6354 32.6 40.6442 32.4673L41.7949 27.6519C42.1313 25.7134 44.176 23.5802 47.2741 23.5802H51.6823L51.1158 26.1826H48.4514ZM49.4517 29.5462L49.9473 27.7582H54.4263C54.9751 25.1735 54.5414 22.7746 52.9746 21.2079C49.7969 18.0301 43.1492 19.11 38.2011 23.8457C37.431 24.5804 36.776 25.3771 36.1829 26.1914H38.8827L38.2542 27.9795H35.0322C34.7224 28.546 34.4392 29.1036 34.2179 29.6701H38.0418L37.431 31.4582H33.6779C33.0317 34.1934 33.4478 36.7338 35.0588 38.3537C38.2011 41.4872 44.8222 40.3896 49.7703 35.6539C50.6378 34.8307 51.3548 33.9367 52.0009 33.0249H48.5399L49.071 31.2369H53.1251C53.4261 30.6704 53.6916 30.1127 53.9129 29.5374L49.4517 29.5462Z" fill="#009E4D"/>
</svg>
