<svg width="134" height="29" viewBox="0 0 134 29" fill="none" xmlns="http://www.w3.org/2000/svg">
<path fill-rule="evenodd" clip-rule="evenodd" d="M110.149 12.0826L108.777 9.40508L107.405 12.0826H110.149ZM111.387 6.25893L119.019 21.1864H114.801L111.756 15.1953H105.832L102.752 21.1529H98.5352L106.166 6.22546H111.387V6.25893Z" fill="#636362"/>
<path fill-rule="evenodd" clip-rule="evenodd" d="M54.3555 6.22546H67.0739V9.33814H58.5726V12.0492H66.9735V15.1619H58.5726V18.0402H67.2413V21.1529H54.3555V6.22546Z" fill="#636362"/>
<path fill-rule="evenodd" clip-rule="evenodd" d="M40.2969 6.22546H44.514V18.0402H53.2496V21.1529H40.2969V6.22546Z" fill="#636362"/>
<path fill-rule="evenodd" clip-rule="evenodd" d="M123.569 12.0828H127.351C127.351 12.0828 129.359 12.1497 129.359 10.7105C129.359 9.30482 127.351 9.33829 127.351 9.33829H123.569V12.0828ZM127.619 6.25908C127.619 6.25908 133.576 6.05826 133.576 10.7105C133.576 14.6265 130.062 15.162 130.062 15.162L133.71 21.1531H129.493L125.845 15.162H123.569V21.1531H119.352V6.25908H127.619Z" fill="#636362"/>
<path fill-rule="evenodd" clip-rule="evenodd" d="M92.5424 9.33814C90.5007 9.33814 89.1954 10.61 89.1954 12.0492H100.307C100.307 16.5341 99.1359 21.1529 92.7432 21.1529H85.0117V18.0402H92.7432C94.584 18.0402 96.1236 16.8019 96.1236 15.1619H85.0117C85.0117 10.6435 86.4509 6.22546 92.5759 6.22546H97.6298V9.33814H92.5424Z" fill="#636362"/>
<path fill-rule="evenodd" clip-rule="evenodd" d="M76.3432 9.33814C74.3015 9.33814 72.9962 10.61 72.9962 12.0492H84.1081C84.1081 16.5341 82.9367 21.1529 76.544 21.1529H68.8125V18.0402H76.544C78.3848 18.0402 79.9244 16.8019 79.9244 15.1619H68.8125C68.8125 10.6435 70.2517 6.22546 76.3766 6.22546H81.4305V9.33814H76.3432Z" fill="#636362"/>
<path fill-rule="evenodd" clip-rule="evenodd" d="M40.9022 25.6382V24.4668H40.4336V27.1444H40.9022V25.8056L42.1405 27.1444H42.6761L41.3373 25.7052L42.6091 24.4668H42.0736L40.9022 25.6382Z" fill="#636362"/>
<path fill-rule="evenodd" clip-rule="evenodd" d="M43.4102 27.1444C44.4142 27.3452 44.4812 26.408 44.4812 25.4709V24.8015H45.4518V27.1778H45.9204V24.4668H44.0461V25.4709C44.0461 26.1068 44.0461 26.9435 43.4102 26.8097V27.1444Z" fill="#636362"/>
<path fill-rule="evenodd" clip-rule="evenodd" d="M47.8631 26.6089V24.4668H47.3945V27.1444H47.93L49.3358 25.0023V27.1444H49.8043V24.4668H49.2688L47.8631 26.6089Z" fill="#636362"/>
<path fill-rule="evenodd" clip-rule="evenodd" d="M52.6144 27.1444H52.9826L53.9198 24.9688V25.1362V27.1444H54.3883V24.4668H53.7189L52.8153 26.6423L51.8781 24.4668H51.2422V27.1444H51.7108V25.1362V24.9688L52.6144 27.1444Z" fill="#636362"/>
<path fill-rule="evenodd" clip-rule="evenodd" d="M56.194 25.2357C56.194 24.6667 56.7295 24.6667 56.8968 24.6667C57.4993 24.6667 57.4993 25.1018 57.4993 25.2022C57.4993 25.5369 57.3654 25.5369 56.9638 25.5704C55.8928 25.6708 55.625 25.972 55.625 26.4406C55.625 27.0096 56.0266 27.2439 56.5622 27.2439C56.9303 27.2439 57.2985 27.11 57.4993 26.7753C57.5662 27.11 57.7336 27.1769 57.9679 27.1769C58.0683 27.1769 58.1018 27.1769 58.1687 27.1435V26.8088C57.9009 26.8088 57.8675 26.7084 57.9009 26.4741L57.9344 25.2357C57.9344 24.4324 57.2985 24.332 56.8634 24.332C55.9262 24.332 55.7254 24.8675 55.7254 25.2357H56.194ZM57.4658 26.0055C57.4324 26.7753 56.9973 26.9427 56.6291 26.9427C56.3279 26.9427 56.0936 26.7418 56.0936 26.4406C56.0936 26.0055 56.4617 25.972 56.8634 25.9051C57.1646 25.8716 57.332 25.8716 57.4658 25.7712V26.0055Z" fill="#636362"/>
<path fill-rule="evenodd" clip-rule="evenodd" d="M60.0778 24.768V27.1444H60.5463V24.768H61.4835V24.4668H59.1406V24.768H60.0778Z" fill="#636362"/>
<path fill-rule="evenodd" clip-rule="evenodd" d="M63.0897 26.6089V24.4668H62.6211V27.1444H63.1566L64.5623 25.0023V27.1444H65.0309V24.4668H64.4954L63.0897 26.6089Z" fill="#636362"/>
<path fill-rule="evenodd" clip-rule="evenodd" d="M66.3359 24.4662V25.3699C66.3359 25.7381 66.3694 26.0728 67.3066 26.0728C67.5408 26.0728 67.7082 26.0728 67.9425 26.0728V27.1772H68.4111V24.4662H67.9425V25.7046C67.8755 25.7046 67.8086 25.7046 67.7082 25.7046C67.6078 25.7046 67.5074 25.7046 67.407 25.7046C66.8045 25.7046 66.8045 25.5372 66.8045 25.2695V24.4327H66.3359V24.4662Z" fill="#636362"/>
<path fill-rule="evenodd" clip-rule="evenodd" d="M71.8251 26.3744C71.7582 26.6756 71.5239 26.9434 71.0888 26.9434C70.4529 26.9434 70.252 26.3744 70.2186 25.9393H72.2937C72.2937 25.9058 72.2937 25.8389 72.2937 25.8054C72.2602 25.2364 72.1263 24.3662 71.0553 24.3662C69.8169 24.3662 69.75 25.4707 69.75 25.8389C69.75 26.0732 69.7835 27.2781 71.1223 27.2781C71.959 27.2781 72.2268 26.776 72.2937 26.3744H71.8251ZM70.2186 25.5711C70.2186 25.2364 70.3525 24.6674 71.0553 24.6674C71.6578 24.6674 71.7916 25.203 71.7916 25.5711H70.2186Z" fill="#636362"/>
<path fill-rule="evenodd" clip-rule="evenodd" d="M75.473 26.2065C75.473 26.5078 75.2722 26.9429 74.7702 26.9429C74.1677 26.9429 73.9334 26.4073 73.9334 25.8049C73.9334 25.2024 74.1677 24.7004 74.7367 24.7004C74.904 24.7004 75.3726 24.7339 75.473 25.3363H75.9081C75.8412 24.8343 75.473 24.3992 74.7367 24.3992C73.6991 24.3992 73.4648 25.2024 73.4648 25.8384C73.4648 27.2776 74.5024 27.311 74.7702 27.311C75.7408 27.311 75.9081 26.5747 75.9416 26.24H75.473V26.2065Z" fill="#636362"/>
<path fill-rule="evenodd" clip-rule="evenodd" d="M77.6522 25.6382V24.4668H77.1836V27.1444H77.6522V25.8056L78.8905 27.1444H79.4261L78.0873 25.7052L79.3591 24.4668H78.8236L77.6522 25.6382Z" fill="#636362"/>
<path fill-rule="evenodd" clip-rule="evenodd" d="M80.3281 25.8047C80.3281 26.5076 80.6628 27.2774 81.6669 27.2774C82.6375 27.2774 83.0057 26.541 83.0057 25.8047C83.0057 25.1018 82.671 24.332 81.6669 24.332C80.6628 24.332 80.3281 25.0684 80.3281 25.8047ZM80.8302 25.8047C80.8302 24.7337 81.4661 24.6667 81.6669 24.6667C81.8677 24.6667 82.5037 24.7337 82.5037 25.8047C82.5037 26.8757 81.8677 26.9427 81.6669 26.9427C81.4661 26.9427 80.8302 26.8757 80.8302 25.8047Z" fill="#636362"/>
<path fill-rule="evenodd" clip-rule="evenodd" d="M86.2157 26.3744C86.1488 26.6756 85.9145 26.9434 85.4794 26.9434C84.8435 26.9434 84.6427 26.3744 84.6092 25.9393H86.6843C86.6843 25.9058 86.6843 25.8389 86.6843 25.8054C86.6508 25.2364 86.517 24.3662 85.4459 24.3662C84.2076 24.3662 84.1406 25.4707 84.1406 25.8389C84.1406 26.0732 84.1741 27.2781 85.5129 27.2781C86.3496 27.2781 86.6174 26.776 86.6843 26.3744H86.2157ZM84.6092 25.5711C84.6092 25.2364 84.7431 24.6674 85.4459 24.6674C86.0484 24.6674 86.1823 25.203 86.1823 25.5711H84.6092Z" fill="#636362"/>
<path fill-rule="evenodd" clip-rule="evenodd" d="M89.7656 25.8047C89.7656 26.5076 90.1003 27.2774 91.1044 27.2774C92.075 27.2774 92.4432 26.541 92.4432 25.8047C92.4432 25.1018 92.1085 24.332 91.1044 24.332C90.1338 24.332 89.7656 25.0684 89.7656 25.8047ZM90.2677 25.8047C90.2677 24.7337 90.9036 24.6667 91.1044 24.6667C91.3052 24.6667 91.9412 24.7337 91.9412 25.8047C91.9412 26.8757 91.3052 26.9427 91.1044 26.9427C90.9036 26.9427 90.2677 26.8757 90.2677 25.8047Z" fill="#636362"/>
<path fill-rule="evenodd" clip-rule="evenodd" d="M95.6571 23.2617C95.5902 23.496 95.3559 23.3956 94.6531 23.5629C94.0841 23.6968 93.582 24.0315 93.582 25.4707C93.582 26.0062 93.649 27.2781 94.9543 27.2781C95.8914 27.2781 96.2931 26.5752 96.2931 25.8724C96.2931 25.136 95.9249 24.3997 95.0212 24.3997C94.3518 24.3997 94.0841 24.8348 93.9837 25.0691C93.9837 24.3327 94.3518 24.065 94.7535 23.9646C95.2555 23.8307 96.0923 23.9646 96.1257 23.2617H95.6571ZM94.0841 25.8724C94.0841 25.4372 94.1845 24.7009 94.9543 24.7009C95.6906 24.7009 95.791 25.4372 95.791 25.8724C95.791 26.5083 95.4898 26.9099 94.9543 26.9099C94.218 26.9434 94.0841 26.3075 94.0841 25.8724Z" fill="#636362"/>
<path fill-rule="evenodd" clip-rule="evenodd" d="M97.4297 25.8047C97.4297 26.5076 97.7644 27.2774 98.7685 27.2774C99.7391 27.2774 100.107 26.541 100.107 25.8047C100.107 25.1018 99.7726 24.332 98.7685 24.332C97.7644 24.332 97.4297 25.0684 97.4297 25.8047ZM97.9317 25.8047C97.9317 24.7337 98.5677 24.6667 98.7685 24.6667C98.9693 24.6667 99.6052 24.7337 99.6052 25.8047C99.6052 26.8757 98.9693 26.9427 98.7685 26.9427C98.5342 26.9427 97.9317 26.8757 97.9317 25.8047Z" fill="#636362"/>
<path fill-rule="evenodd" clip-rule="evenodd" d="M101.379 24.4666V28.1483H101.847V26.776C102.082 27.2446 102.617 27.2781 102.751 27.2781C103.354 27.2781 103.956 26.8764 103.956 25.8054C103.956 24.8013 103.421 24.3662 102.751 24.3662C102.517 24.3662 102.149 24.4331 101.847 24.8348V24.4666H101.379ZM101.814 25.8054C101.814 24.8013 102.383 24.6674 102.617 24.6674C103.153 24.6674 103.454 25.1025 103.454 25.8054C103.454 26.6756 103.019 26.9434 102.651 26.9434C102.283 26.9434 101.814 26.6421 101.814 25.8054Z" fill="#636362"/>
<path fill-rule="evenodd" clip-rule="evenodd" d="M105.328 28.115C105.428 28.1485 105.562 28.1485 105.696 28.1485C106.198 28.1485 106.299 27.7134 106.399 27.4791L107.47 24.4668H107.001L106.299 26.6423L105.428 24.4668H104.859L106.031 27.1778L105.964 27.3787C105.897 27.6129 105.83 27.8472 105.529 27.8472C105.495 27.8472 105.428 27.8472 105.294 27.8138V28.115H105.328Z" fill="#636362"/>
<path fill-rule="evenodd" clip-rule="evenodd" d="M108.207 26.8092L108.241 27.8468H108.642V27.1439H110.952V27.8468H111.353L111.387 26.8092H110.918V24.4329H108.977V24.868C108.977 25.8721 108.809 26.3741 108.542 26.7757H108.207V26.8092ZM110.449 24.7676V26.8092H109.044C109.345 26.3741 109.412 25.6378 109.412 25.1357V24.7676H110.449Z" fill="#636362"/>
<path fill-rule="evenodd" clip-rule="evenodd" d="M112.324 25.8047C112.324 26.5076 112.659 27.2774 113.663 27.2774C114.634 27.2774 115.002 26.541 115.002 25.8047C115.002 25.1018 114.667 24.332 113.663 24.332C112.659 24.332 112.324 25.0684 112.324 25.8047ZM112.826 25.8047C112.826 24.7337 113.462 24.6667 113.663 24.6667C113.864 24.6667 114.5 24.7337 114.5 25.8047C114.5 26.8757 113.864 26.9427 113.663 26.9427C113.429 26.9427 112.826 26.8757 112.826 25.8047Z" fill="#636362"/>
<path fill-rule="evenodd" clip-rule="evenodd" d="M116.273 24.4668V27.1778H117.545C117.98 27.1778 118.516 27.0774 118.516 26.475C118.516 26.2072 118.449 25.906 117.913 25.7721C118.014 25.7386 118.415 25.6048 118.415 25.1362C118.415 24.5337 117.813 24.5003 117.545 24.5003H116.273V24.4668ZM116.742 24.768H117.411C117.612 24.768 117.947 24.8015 117.947 25.1362C117.947 25.337 117.847 25.5378 117.378 25.5378H116.742V24.768ZM116.742 25.906H117.411C117.612 25.906 118.047 25.9395 118.047 26.408C118.047 26.8097 117.612 26.8097 117.445 26.8097H116.775V25.906H116.742Z" fill="#636362"/>
<path fill-rule="evenodd" clip-rule="evenodd" d="M120.19 25.2357C120.19 24.6667 120.726 24.6667 120.893 24.6667C121.495 24.6667 121.495 25.1018 121.495 25.2022C121.495 25.5369 121.362 25.5369 120.96 25.5704C119.889 25.6708 119.621 25.972 119.621 26.4406C119.621 27.0096 120.023 27.2439 120.558 27.2439C120.926 27.2439 121.295 27.11 121.495 26.7753C121.562 27.11 121.73 27.1769 121.964 27.1769C122.064 27.1769 122.098 27.1769 122.165 27.1435V26.8088C121.897 26.8088 121.864 26.7084 121.897 26.4741L121.93 25.2357C121.93 24.4324 121.295 24.332 120.859 24.332C119.922 24.332 119.722 24.8675 119.722 25.2357H120.19ZM121.495 26.0055C121.462 26.7753 121.027 26.9427 120.659 26.9427C120.357 26.9427 120.123 26.7418 120.123 26.4406C120.123 26.0055 120.491 25.972 120.893 25.9051C121.194 25.8716 121.362 25.8716 121.495 25.7712V26.0055Z" fill="#636362"/>
<path fill-rule="evenodd" clip-rule="evenodd" d="M123.937 25.906H125.276V27.1444H125.745V24.4668H125.276V25.5713H123.937V24.4668H123.469V27.1444H123.937V25.906Z" fill="#636362"/>
<path fill-rule="evenodd" clip-rule="evenodd" d="M127.652 26.6089V24.4668H127.184V27.1444H127.719L129.125 25.0023V27.1444H129.593V24.4668H129.058L127.652 26.6089Z" fill="#636362"/>
<path fill-rule="evenodd" clip-rule="evenodd" d="M132.974 26.3744C132.907 26.6756 132.672 26.9434 132.237 26.9434C131.601 26.9434 131.4 26.3744 131.367 25.9393H133.442C133.442 25.9058 133.442 25.8389 133.442 25.8054C133.409 25.2364 133.275 24.3662 132.204 24.3662C130.965 24.3662 130.898 25.4707 130.898 25.8389C130.898 26.0732 130.932 27.2781 132.271 27.2781C133.107 27.2781 133.375 26.776 133.442 26.3744H132.974ZM131.4 25.5711C131.4 25.2364 131.534 24.6674 132.237 24.6674C132.84 24.6674 132.974 25.203 132.974 25.5711H131.4Z" fill="#636362"/>
<path fill-rule="evenodd" clip-rule="evenodd" d="M3.11328 24.1987H18.4758L26.2743 6.22546H27.3788V27.3783H3.11328V24.1987Z" fill="#76B828"/>
<path fill-rule="evenodd" clip-rule="evenodd" d="M24.2655 3.11267H8.86945L1.1045 21.1528H0V0H24.2655V3.11267Z" fill="#76B828"/>
</svg>
