<svg width="147" height="34" viewBox="0 0 147 34" fill="none" xmlns="http://www.w3.org/2000/svg">
<path d="M126.473 9.091C125.096 7.82717 123.26 7.2527 121.423 7.3676C117.292 7.3676 115.915 9.43568 115.341 10.3548V7.82717H108.34V12.6527C107.881 11.5038 107.192 10.5846 106.389 9.78036C104.208 7.94206 101.454 7.02292 98.5849 7.13781C93.6499 7.13781 90.0921 9.32078 88.6001 12.7676V7.82717H82.1732V9.55057C81.9436 9.32078 81.8289 8.9761 81.4846 8.74632C80.2221 7.71228 78.6154 7.13781 77.0087 7.2527C71.4998 7.2527 69.3193 10.4697 68.5159 13.6867C68.1716 12.1931 67.3682 10.8144 66.2206 9.78036C64.1548 7.94206 61.5151 6.90802 58.7607 7.02292C55.5472 6.90802 52.4485 8.28674 50.3827 10.8144L51.3008 7.71228H43.7262L42.1195 15.7548C41.7752 17.3633 41.6604 18.9718 41.5457 20.5803C41.3161 18.5122 40.9718 16.3293 40.5128 14.2612L39.2503 7.71228H32.9381L31.5609 14.3761C31.1019 16.4442 30.8723 18.3974 30.6428 20.4654C30.4133 17.8229 30.2985 17.3633 29.7247 14.6059L28.3475 7.59738H20.7728L22.2648 12.6527C20.0842 10.8144 16.756 10.2399 13.313 9.66546C11.1324 9.32078 9.86996 8.9761 9.86996 7.71228C9.86996 6.44845 11.3619 6.10377 12.7391 6.10377C14.3459 6.10377 15.9526 6.44845 17.4446 7.02292C18.248 7.3676 18.9366 7.94206 19.3956 8.63142L24.2158 4.49527C23.1829 3.34633 21.9205 2.31229 20.5433 1.62293C18.1332 0.474002 15.4935 -0.100464 12.9687 0.0144288C8.37799 0.0144288 4.13161 1.50804 2.52487 5.18463C2.29534 6.44845 2.06581 7.59738 2.06581 8.74632C2.06581 14.0314 6.65649 15.525 8.95183 16.0995C9.98473 16.3293 14.6902 17.1335 15.4935 17.4782C16.8708 17.9378 16.8707 18.8569 16.8707 19.0867C16.8707 20.925 13.6573 21.0399 13.0834 21.0399C11.9358 21.0399 10.6733 20.8101 9.64043 20.4654C8.14846 20.1208 6.88602 19.0867 6.08265 17.708L0 21.4995C1.72151 23.7973 4.24638 25.5207 7.00079 26.325C8.95183 26.8995 10.9029 27.1292 12.8539 27.1292C14.2311 27.1292 19.2809 27.1292 22.4943 23.9122C23.5272 22.7633 24.3306 21.3846 24.5601 19.891L26.5112 26.4399H33.8563L35.5778 18.1676C35.9221 16.674 36.1516 15.0654 36.1516 13.4569C36.2664 15.2952 36.4959 17.1335 36.955 18.9718L38.5617 26.4399H45.9068L48.6612 17.1335C48.6612 22.3037 52.1042 27.1292 58.8755 27.1292C62.7775 27.359 66.5649 25.4058 68.7454 22.0739L62.6628 19.5463C62.2037 21.0399 60.8265 21.959 59.3345 21.959C58.5312 21.959 57.7278 21.7293 57.154 21.0399C56.4654 20.3505 56.2358 19.4314 56.2358 18.3974H68.5159C68.8602 22.5335 72.5328 25.7505 76.6644 25.4058C79.7631 25.4058 80.9107 24.2569 81.0255 24.0271C81.1403 23.7973 81.3698 23.6824 81.4846 23.4527C81.4846 24.0271 81.4846 24.6016 81.4846 25.1761C81.7141 26.2101 81.3698 27.2441 80.796 28.0484C80.1074 28.7377 79.1892 28.9675 78.1563 28.9675C75.2872 28.9675 75.2872 27.4739 75.2872 26.6697H68.6307C68.7454 28.6229 68.7454 31.3803 72.3032 32.6441C74.2542 33.1037 76.2053 33.4484 78.1563 33.4484C80.4517 33.5633 82.747 33.1037 84.9276 32.1845C88.4854 30.4611 88.6001 27.4739 88.7149 25.2909V21.7293C90.0921 24.8314 93.1908 27.1292 98.3553 27.1292C103.52 27.1292 106.963 24.9463 108.455 21.6144V26.4399H115.8V16.5591C115.8 15.525 115.915 13.4569 118.44 13.4569C120.964 13.4569 120.85 15.2952 120.85 16.2144V26.325H128.195V14.6059C128.424 12.5378 127.736 10.5846 126.473 9.091ZM56.3506 14.491C56.3506 12.9974 57.613 11.7335 59.105 11.7335C60.2527 11.7335 61.2856 12.5378 61.5151 13.6867C61.6299 13.9165 61.6299 14.2612 61.6299 14.6059H56.3506V14.491ZM78.2711 20.5803C76.3201 20.5803 75.4019 19.4314 75.4019 16.674C75.4019 15.9846 75.4019 12.4229 78.5006 12.4229C81.3698 12.4229 81.3698 15.4101 81.3698 16.4442C81.3698 17.8229 81.255 20.5803 78.2711 20.5803ZM98.4701 21.959C95.4862 21.959 95.0271 18.8569 95.0271 17.0186C95.0271 14.9506 95.6009 12.308 98.4701 12.1931C101.798 12.0782 101.913 15.8697 101.913 16.9037C101.913 19.7761 100.995 21.959 98.4701 21.959Z" fill="#0064B3"/>
<path d="M146.325 0.703446C146.325 0.703446 137.832 0.243873 134.733 5.52896C132.782 8.86087 132.208 12.7672 133.126 16.5587C134.848 13.5715 136.799 10.8141 138.979 8.17151C141.39 5.52896 143.8 3.1162 146.325 0.703446Z" fill="#8AC21C"/>
<path d="M133.246 16.559C134.968 13.5718 136.919 10.8143 139.099 8.17177C141.395 5.52923 143.805 3.11647 146.33 0.818604C146.33 0.818604 148.51 7.94199 144.379 12.6526C140.247 17.3632 133.246 16.559 133.246 16.559Z" fill="#008542"/>
</svg>
