<svg width="132" height="31" viewBox="0 0 132 31" fill="none" xmlns="http://www.w3.org/2000/svg">
<path fill-rule="evenodd" clip-rule="evenodd" d="M0 30.2644H30.2626V0H0V30.2644ZM19.3961 2.31176C24.7454 4.06465 28.6104 9.13563 28.6253 15.1265C28.6396 21.0203 24.852 26.0794 19.3961 27.9479V2.31176ZM15.1259 1.62658C16.0924 1.62658 17.1213 1.75527 17.9793 1.92567C17.9793 8.78231 11.3485 14.4247 4.50436 14.4247L1.64265 14.4205C2.11156 7.39168 7.92731 1.62658 15.1259 1.62658ZM4.50674 15.8523C11.3491 15.8523 17.9781 21.4886 17.9781 28.3393C17.1213 28.5145 16.0417 28.6438 15.1259 28.6438C7.92493 28.6343 1.91256 22.8507 1.64027 15.8528H4.50674V15.8523Z" fill="#121441"/>
<path fill-rule="evenodd" clip-rule="evenodd" d="M40.3912 17.7917V15.8845H46.6878V13.4518H40.39V9.9109H47.0893V7.48535H37.8125V12.6987V17.6815C37.8125 20.2584 38.9106 22.0214 41.4869 22.3843C41.5387 22.3968 41.5894 22.4063 41.6364 22.4069H41.6835C41.9474 22.4367 42.2174 22.4564 42.4992 22.4564H47.2681V20.0332H42.52C41.7014 20.0332 40.3912 19.6292 40.3912 17.7917Z" fill="#121441"/>
<path fill-rule="evenodd" clip-rule="evenodd" d="M49.1016 14.5597V22.4596H51.6803V14.5079V7.48145H49.1016V14.5597Z" fill="#121441"/>
<path fill-rule="evenodd" clip-rule="evenodd" d="M59.0734 11.2861C55.8137 11.2861 53.375 13.5312 53.375 17.028V17.115C53.375 20.5254 55.7279 22.727 59.1383 22.727C60.7786 22.727 62.311 22.2736 63.7142 20.784L62.1603 19.273C61.3398 20.0935 60.5415 20.5254 59.2247 20.5254C57.3038 20.5254 56.03 19.4029 55.9436 17.6762H64.4053C64.4488 17.2443 64.4488 16.77 64.4488 16.77C64.4482 13.726 62.311 11.2861 59.0734 11.2861ZM56.0079 15.8626C56.1158 14.5458 57.4545 13.4883 59.0734 13.4883C60.5844 13.4883 61.8147 14.5679 61.8147 15.8626H56.0079Z" fill="#121441"/>
<path fill-rule="evenodd" clip-rule="evenodd" d="M71.6914 13.597C72.8568 13.597 73.7201 14.029 74.4542 14.7845L76.0522 13.1222C74.7998 11.7834 73.3102 11.2441 71.692 11.2441C68.4108 11.2441 65.7773 13.6834 65.7773 17.0075C65.7773 20.3315 68.4108 22.7714 71.692 22.7714C73.3108 22.7714 74.8004 22.2316 76.0522 20.8934L74.4542 19.231C73.7207 19.9871 72.8568 20.4179 71.6914 20.4179C69.7919 20.4179 68.3453 18.9719 68.3453 17.0075C68.3453 15.0437 69.7919 13.597 71.6914 13.597Z" fill="#121441"/>
<path fill-rule="evenodd" clip-rule="evenodd" d="M80.2388 17.7954H80.2359V13.9714H82.5816V11.6287H80.2394V7.48242H77.6602V12.8549V17.9485L77.6679 17.9479C77.7412 20.3812 78.847 22.0388 81.3351 22.3885C81.387 22.401 81.4376 22.4106 81.4841 22.4118H81.5318C81.7951 22.4409 82.0656 22.4606 82.3474 22.4606H82.6197L82.6298 20.038H82.3689C81.549 20.0374 80.2388 19.6329 80.2388 17.7954Z" fill="#121441"/>
<path fill-rule="evenodd" clip-rule="evenodd" d="M87.3078 13.24V11.6295H84.75V16.9371V22.4603H87.3078V16.7649C87.3078 14.9816 88.4464 13.8638 90.2291 13.8638C90.6378 13.8638 91.0037 13.9067 91.3046 13.9717V11.4788C91.1967 11.4574 90.8106 11.415 90.5312 11.415C88.9833 11.4144 87.8232 12.1235 87.3078 13.24Z" fill="#121441"/>
<path fill-rule="evenodd" clip-rule="evenodd" d="M97.6097 11.3076C94.3208 11.3076 91.6992 13.7999 91.6992 17.0453C91.6992 20.2889 94.3208 22.7836 97.6097 22.7836C100.875 22.7836 103.519 20.2889 103.519 17.0453C103.519 13.7993 100.876 11.3076 97.6097 11.3076ZM97.6097 20.4409C95.6971 20.4409 94.2577 18.9579 94.2577 17.0453C94.2577 15.1322 95.6971 13.6498 97.6097 13.6498C99.5014 13.6498 100.962 15.1322 100.962 17.0453C100.962 18.9573 99.5014 20.4409 97.6097 20.4409Z" fill="#121441"/>
<path fill-rule="evenodd" clip-rule="evenodd" d="M105.105 14.3011V22.4596H107.686V14.4048V7.48145H105.105V14.3011Z" fill="#121441"/>
<path fill-rule="evenodd" clip-rule="evenodd" d="M116.985 17.9253C116.985 19.6442 115.975 20.3758 114.62 20.3758C113.267 20.3758 112.256 19.6436 112.256 17.9479V11.6299H109.656V14.7668V18.163C109.656 21.2577 111.913 22.7406 114.599 22.7406C117.307 22.7406 119.584 21.2368 119.584 18.0986V14.7674V11.6305H116.985V17.9253Z" fill="#121441"/>
<path fill-rule="evenodd" clip-rule="evenodd" d="M129.342 18.997L127.716 16.7222L129.73 13.9791L131.454 11.6298H128.639L126.297 14.874L123.932 11.6298H121.139L122.741 13.8206L124.879 16.7442L122.638 19.8633L120.773 22.4599H123.546L126.297 18.6347L129.047 22.4599H131.819L129.342 18.997Z" fill="#121441"/>
</svg>
