<svg width="147" height="15" viewBox="0 0 147 15" fill="none" xmlns="http://www.w3.org/2000/svg">
<path d="M97.0149 3.14845C98.4727 1.31903 100.302 1.20469 102.274 1.7478C103.446 2.06223 104.247 2.89118 104.304 4.12032C104.39 6.97879 104.333 9.83725 104.333 12.7529C102.96 12.7529 101.588 12.7529 100.131 12.7529C100.131 12.4956 100.131 12.2098 100.131 11.9525C100.131 10.0373 100.131 8.12218 100.131 6.207C100.131 5.14937 99.5875 4.57768 98.7585 4.80636C98.3869 4.92069 97.9582 5.2923 97.7867 5.63531C97.558 6.17842 97.4436 6.80728 97.4436 7.37897C97.4151 9.12264 97.4151 10.8949 97.4151 12.7243C96.043 12.7243 94.6995 12.7243 93.2417 12.7243C93.2417 12.467 93.2131 12.2098 93.2131 11.9525C93.2131 10.266 93.2131 8.57953 93.2131 6.89304C93.2131 6.5786 93.1845 6.23559 93.1559 5.92116C93.0988 5.37805 92.8987 4.92069 92.327 4.80636C91.7267 4.66343 91.155 4.86353 90.9549 5.43522C90.6977 6.09267 90.5262 6.83587 90.4976 7.55048C90.4404 9.26556 90.469 10.9521 90.469 12.7529C89.0683 12.7529 87.7249 12.7529 86.3242 12.7529C86.3242 9.15122 86.3242 5.52097 86.3242 1.83355C87.6105 1.83355 88.8683 1.83355 90.2117 1.83355C90.2403 2.23374 90.2403 2.60534 90.2689 3.20562C91.1264 1.91931 92.327 1.51912 93.6419 1.51912C94.9854 1.49054 96.2145 1.83355 97.0149 3.14845Z" fill="#008FD1"/>
<path d="M146.898 12.7536C145.497 12.7536 144.153 12.7536 142.696 12.7536C142.696 12.2391 142.696 11.7246 142.696 11.2387C142.696 9.75225 142.696 8.26585 142.696 6.77945C142.696 6.03625 142.467 5.43597 141.752 5.12154C141.009 4.77852 140.18 4.86428 139.666 5.46455C139.208 6.00766 138.808 6.72228 138.665 7.43689C138.465 8.52311 138.522 9.63791 138.494 10.7527C138.465 11.4102 138.494 12.039 138.494 12.7536C137.093 12.7536 135.75 12.7536 134.32 12.7536C134.32 9.12339 134.32 5.49314 134.32 1.80572C135.607 1.80572 136.864 1.80572 138.208 1.80572C138.236 2.26307 138.265 2.72043 138.294 3.29212C138.494 3.12061 138.637 3.03486 138.751 2.92052C140.495 1.40553 142.496 1.17686 144.611 1.80572C145.926 2.17732 146.783 3.1492 146.84 4.46409C146.955 7.20822 146.898 9.92376 146.898 12.7536Z" fill="#008FD1"/>
<path d="M58.1116 12.7533C58.083 12.3531 58.083 12.0101 58.0544 11.5242C57.2826 12.3817 56.4251 12.9534 55.3675 12.982C54.3384 12.982 53.2522 12.982 52.2517 12.7247C50.9654 12.4103 50.165 11.3241 50.165 10.0092C50.1365 7.37941 50.165 4.72103 50.165 2.09125C50.165 2.03408 50.1936 1.94832 50.2222 1.83398C51.5657 1.83398 52.9092 1.83398 54.367 1.83398C54.367 2.11983 54.367 2.37709 54.367 2.63435C54.367 4.34943 54.367 6.06451 54.367 7.77959C54.367 8.78005 54.8529 9.40892 55.6533 9.58042C56.568 9.78052 57.4541 9.35175 57.74 8.37987C57.9687 7.63667 58.0544 6.86488 58.083 6.0931C58.1402 4.69245 58.1116 3.2918 58.1116 1.83398C59.5408 1.83398 60.8843 1.83398 62.2564 1.83398C62.2564 5.49282 62.2564 9.12307 62.2564 12.7819C60.8557 12.7533 59.5408 12.7533 58.1116 12.7533Z" fill="#008FD1"/>
<path d="M123.714 12.7536C122.285 12.7536 120.941 12.7536 119.598 12.7536C119.598 9.0948 119.598 5.46455 119.598 1.80572C120.913 1.80572 122.17 1.80572 123.514 1.80572C123.514 2.29166 123.514 2.72043 123.514 3.29212C123.742 3.12061 123.885 3.00627 124 2.92052C125.743 1.40553 127.744 1.17686 129.86 1.80572C131.203 2.2059 132.032 3.20637 132.089 4.54985C132.175 7.26539 132.118 9.98093 132.118 12.7536C130.746 12.7536 129.402 12.7536 127.916 12.7536C127.916 12.4964 127.916 12.2105 127.916 11.9533C127.916 10.3239 127.916 8.69462 127.916 7.03671C127.916 5.83615 127.516 5.23588 126.629 5.0072C125.715 4.77852 124.629 5.23588 124.286 6.20776C123.943 7.15105 123.8 8.20868 123.714 9.20914C123.657 10.3525 123.714 11.5245 123.714 12.7536Z" fill="#008FD1"/>
<path d="M37.8158 4.83563C37.9016 3.97809 37.9873 3.23489 38.1017 2.49169C38.1303 2.34877 38.3304 2.12009 38.4733 2.0915C40.8458 1.63415 43.2183 1.14821 45.6194 1.74849C47.3917 2.17726 48.0777 3.09197 48.0777 4.92139C48.0777 7.40825 48.0777 9.89511 48.0777 12.382C48.0777 12.4677 48.0491 12.5821 48.0205 12.725C46.6771 12.725 45.3336 12.725 43.9044 12.725C43.9044 11.1528 43.9044 9.58068 43.9044 7.8656C42.9611 8.2372 42.1035 8.49447 41.3603 8.92324C41.0459 9.09474 40.7315 9.69502 40.8172 10.0095C40.8744 10.2953 41.4461 10.524 41.8463 10.6383C42.1893 10.7527 42.5895 10.6669 43.0754 10.6669C42.9039 11.3529 42.7324 12.039 42.5323 12.725C42.5037 12.8393 42.3322 12.9537 42.1893 12.9537C40.903 13.1538 39.6167 13.1823 38.4161 12.6392C37.1584 12.0675 36.5295 11.0957 36.5009 9.72361C36.4723 8.38013 37.1012 7.40825 38.3304 6.95089C39.5309 6.49354 40.7886 6.23628 42.0178 5.89326C42.3894 5.77892 42.8181 5.72176 43.1612 5.49308C43.4184 5.32157 43.79 4.86422 43.7043 4.66412C43.6185 4.34969 43.1897 3.97809 42.8753 3.94951C42.0464 3.92092 41.2174 3.97809 40.417 4.1496C39.5595 4.26394 38.7591 4.57837 37.8158 4.83563Z" fill="#008FD1"/>
<path d="M107.223 4.83503C107.309 4.00608 107.366 3.29146 107.48 2.60543C107.509 2.40534 107.766 2.11949 107.966 2.06232C110.053 1.60497 112.168 1.23337 114.312 1.60497C115.112 1.74789 115.941 2.06232 116.57 2.51967C117.027 2.89127 117.427 3.63448 117.456 4.23475C117.542 6.97888 117.513 9.72301 117.513 12.4671C117.513 12.5243 117.456 12.6101 117.427 12.7244C116.113 12.7244 114.769 12.7244 113.34 12.7244C113.34 11.1522 113.34 9.58008 113.34 7.80783C112.368 8.20802 111.51 8.46528 110.739 8.92264C110.453 9.09414 110.138 9.72301 110.253 10.0089C110.339 10.2947 110.91 10.5234 111.31 10.6091C111.653 10.6949 112.054 10.5805 112.54 10.5234C112.368 11.238 112.225 11.924 112.025 12.5815C111.996 12.7244 111.739 12.8959 111.596 12.8959C110.453 12.8387 109.281 12.9245 108.166 12.6672C106.794 12.3242 106.051 11.2666 105.965 9.83734C105.879 8.49387 106.48 7.40765 107.852 6.86454C108.995 6.40719 110.224 6.17851 111.396 5.83549C111.796 5.72115 112.254 5.6354 112.597 5.40672C112.854 5.23522 113.197 4.80645 113.14 4.57777C113.083 4.32051 112.654 3.92032 112.397 3.92032C111.539 3.89174 110.682 3.94891 109.853 4.09183C108.938 4.26334 108.137 4.57777 107.223 4.83503Z" fill="#008FD1"/>
<path d="M68.0869 7.95103C68.1441 9.06583 68.63 9.69469 69.6591 10.0377C70.8882 10.4379 72.0887 10.2092 73.3179 9.95195C73.8038 9.83762 74.2898 9.69469 74.8615 9.55177C74.7185 10.5236 74.6328 11.4384 74.4613 12.2959C74.4327 12.4674 74.204 12.6961 74.0325 12.7247C72.0316 13.0677 70.0021 13.2964 67.9726 12.839C64.9426 12.153 63.4276 9.72328 63.885 6.35029C64.3423 2.89155 66.8006 1.46231 70.145 1.4909C70.7167 1.4909 71.2884 1.60524 71.8601 1.71958C74.4041 2.34844 75.6904 3.97776 75.6904 6.57897C75.6904 7.92244 75.6904 7.92244 74.3469 7.92244C72.2603 7.95103 70.2022 7.95103 68.0869 7.95103ZM71.6028 5.83576C71.5171 4.57804 71.0025 4.03493 70.0592 4.00635C68.973 3.97776 68.287 4.60662 68.1441 5.83576C69.2589 5.83576 70.4023 5.83576 71.6028 5.83576Z" fill="#008FD1"/>
<path d="M17.4367 0.833664C15.8074 0.833664 14.0923 0.805079 12.4058 0.833664C10.6907 0.890833 9.00424 1.17668 7.43208 1.8913C4.88805 3.06327 4.65937 4.92127 6.8318 6.66493C7.43208 7.15087 8.1467 7.4653 8.80414 7.92266C9.69027 8.55152 10.6621 9.1518 11.4053 9.92358C12.2629 10.8097 12.0056 11.753 10.8908 12.2961C10.3191 12.5534 9.71885 12.7535 9.08999 12.8392C8.00377 12.9536 6.88897 12.9536 5.77417 13.0107C4.68796 13.0393 3.74466 12.6677 2.91571 12.0103C2.45835 11.6387 2.001 11.2956 1.60081 10.8955C-0.514451 8.69444 -0.543036 5.92173 1.57223 3.69213C3.14438 2.03422 5.14531 1.11951 7.31774 0.576402C10.5478 -0.223968 13.7779 -0.195384 16.9794 0.69074C17.1794 0.74791 17.351 0.805079 17.4367 0.833664Z" fill="#008FD1"/>
<path d="M7.08984 13.8684C8.49049 13.8684 10.1484 13.9827 11.7777 13.8398C13.4071 13.6683 15.0364 13.2967 16.6371 12.8965C17.1802 12.7536 17.7233 12.382 18.1807 11.9818C19.2383 11.0957 19.3812 9.95229 18.438 8.95183C17.6662 8.12287 16.6657 7.49401 15.751 6.83656C14.9792 6.26487 14.0931 5.86468 13.3785 5.23582C11.9778 4.00668 12.2637 2.72037 14.0073 2.1201C15.8367 1.51982 17.8663 1.23397 19.5813 1.86283C23.1544 3.17773 25.384 7.23675 22.2397 10.6955C20.6104 12.4963 18.438 13.3824 16.1512 13.9256C13.0355 14.6973 9.91972 14.6116 7.08984 13.8684Z" fill="#F68121"/>
<path d="M35.2176 4.66369C34.017 4.57794 32.9594 4.49218 31.8732 4.4636C31.6159 4.4636 31.3015 4.66369 31.1586 4.89237C31.0728 5.03529 31.3015 5.40689 31.473 5.54981C32.0447 6.00717 32.6735 6.37877 33.2167 6.83612C33.7884 7.32206 34.36 7.83659 34.7602 8.46545C35.7321 9.98044 35.189 11.6669 33.5597 12.4387C32.3019 13.039 30.9871 13.1247 29.6436 13.0104C28.8432 12.9532 28.0428 12.8103 27.2425 12.696C26.8423 12.6388 26.6136 12.4959 26.5564 12.0385C26.4421 11.181 26.2992 10.3235 26.1562 9.38016C27.0424 9.60884 27.8427 9.8661 28.6717 10.009C29.1862 10.0948 29.7293 10.0662 30.2439 9.98044C30.8727 9.8661 31.0442 9.40874 30.5583 8.95139C30.0438 8.46545 29.4435 8.09385 28.9004 7.66508C27.9571 6.95046 27.0138 6.23585 26.7565 4.94954C26.4421 3.23446 27.4426 1.80523 29.3863 1.60513C31.0442 1.43363 32.7307 1.6623 34.4172 1.74806C34.5601 1.74806 34.7888 1.97673 34.7888 2.09107C35.0461 3.03437 35.1318 3.8919 35.2176 4.66369Z" fill="#008FD1"/>
<path d="M77.3242 1.7768C78.6677 1.7768 79.9254 1.7768 81.2403 1.7768C81.2689 2.09123 81.3261 2.40566 81.3832 2.80584C81.5833 2.63434 81.6977 2.46283 81.8692 2.37707C82.3265 2.09123 82.7839 1.74821 83.2984 1.60529C84.6705 1.23369 84.8991 1.43378 85.0135 2.83443C85.0707 3.57763 85.1278 4.32083 85.2136 5.1212C84.9277 5.09262 84.7276 5.06403 84.5561 5.03545C82.9554 4.7496 81.6977 5.57855 81.5547 7.17929C81.4404 8.55136 81.4976 9.95201 81.469 11.3241C81.469 11.7814 81.469 12.2102 81.469 12.7247C80.0683 12.7247 78.7249 12.7247 77.3242 12.7247C77.3242 9.09447 77.3242 5.4928 77.3242 1.7768Z" fill="#008FD1"/>
</svg>
