<svg width="115" height="35" viewBox="0 0 115 35" fill="none" xmlns="http://www.w3.org/2000/svg">
<path fill-rule="evenodd" clip-rule="evenodd" d="M72.3996 29.7668C72.4702 29.6961 72.5661 29.6558 72.667 29.6608C72.7931 29.6608 72.8839 29.6961 72.9495 29.7617C73.01 29.8273 73.0454 29.9333 73.0504 30.0745L72.2734 30.0695C72.2785 29.9585 72.3239 29.8525 72.3996 29.7668ZM85.0125 30.1704C85.0882 30.0745 85.2093 30.0241 85.3304 30.0291C85.4616 30.0291 85.5675 30.0745 85.6482 30.1704C85.729 30.2662 85.7693 30.3873 85.7693 30.5437C85.7693 30.6951 85.729 30.8162 85.6482 30.912C85.5675 31.0028 85.4515 31.0533 85.3253 31.0483C85.1942 31.0483 85.0882 31.0028 85.0075 30.912C84.9268 30.8212 84.8864 30.7001 84.8864 30.5488C84.8915 30.3924 84.9318 30.2662 85.0125 30.1704ZM95.1988 30.912C95.1231 30.8263 95.0827 30.7102 95.0827 30.5639C95.0827 30.4176 95.1231 30.3016 95.1988 30.2158C95.2744 30.125 95.3804 30.0846 95.5065 30.0846C95.6327 30.0846 95.7336 30.13 95.8092 30.2158C95.8849 30.3016 95.9253 30.4176 95.9253 30.5639C95.9303 30.69 95.89 30.8162 95.8092 30.912C95.7336 30.9978 95.6226 31.0482 95.5065 31.0432C95.3905 31.0482 95.2795 31.0028 95.1988 30.912ZM104.502 30.1704C104.583 30.0745 104.689 30.0291 104.82 30.0291C104.951 30.0291 105.057 30.0745 105.138 30.1704C105.219 30.2662 105.259 30.3873 105.259 30.5437C105.259 30.6951 105.219 30.8162 105.138 30.912C105.057 31.0028 104.941 31.0533 104.82 31.0483C104.689 31.0483 104.583 31.0028 104.502 30.912C104.421 30.8212 104.381 30.7001 104.381 30.5488C104.381 30.3924 104.421 30.2662 104.502 30.1704Z" fill="black"/>
<path fill-rule="evenodd" clip-rule="evenodd" d="M112.124 34.9026V24.3481H0.0504519V34.9026H112.124ZM0 21.4975L2.48223 0.549925H9.97434L12.8753 9.46477L15.5644 0.549925H23.5308L26.0634 21.4975H18.8892L17.9911 12.2649L14.9842 21.4975H10.7614L7.96635 12.3153L6.96236 21.4975H0ZM37.3041 16.0437C36.7996 16.4372 36.1336 16.6794 35.4021 16.6794C33.8381 16.6794 32.5667 15.5745 32.5667 14.2173C32.5667 12.8551 33.8381 11.7553 35.4021 11.7553C36.1336 11.7553 36.7996 11.9975 37.3041 12.391V7.03299C36.396 6.75046 35.4525 6.60415 34.504 6.6092C29.8171 6.6092 26.013 10.0147 26.013 14.2224C26.013 18.4301 29.812 21.8356 34.504 21.8356C35.4879 21.8356 36.4263 21.6842 37.3041 21.4067V16.0437ZM60.8096 10.8926C60.8096 4.8787 55.7241 0 49.4479 0C43.1717 0 38.0811 4.8787 38.0811 10.8926C38.0811 16.9115 43.1717 21.7851 49.4479 21.7851C50.2198 21.7851 50.9715 21.7094 51.698 21.5682L52.2883 22.7588H57.3537L55.8603 19.878C58.8521 17.9256 60.8096 14.631 60.8096 10.8926ZM77.7211 6.83118H70.8647V14.5856C70.8647 15.2869 70.2996 15.852 69.5984 15.852C68.8971 15.852 68.332 15.2869 68.332 14.5856V6.83118H61.4655V15.3273C61.4655 18.9548 65.1081 21.8961 69.5984 21.8961C74.0886 21.8961 77.7312 18.9548 77.7312 15.3273L77.7211 6.83118ZM106.146 6.83118L103.709 12.9308L101.413 6.83118H88.6641V8.46078C87.5542 7.3357 86.1214 6.6546 84.5573 6.6546C81.0358 6.6546 78.1853 10.0853 78.1853 14.3182C78.1853 18.5512 81.0358 21.9819 84.5573 21.9819C86.1214 21.9819 87.5542 21.3008 88.6641 20.1757V21.5026H95.2077V7.94112L100.48 18.5713L98.4064 22.8749H105.212L112.533 6.83623H106.146V6.83118ZM113.002 4.99474C114.107 4.99474 115 4.10174 115 2.99684C115 1.89195 114.107 0.998947 113.002 0.998947C111.897 0.998947 111.004 1.89699 111.004 2.99684C111.004 4.10174 111.897 4.99474 113.002 4.99474ZM60.3592 32.3245V27.3147H62.1957V32.3245H60.3592ZM63.0685 28.7879H64.7435V29.2722C64.8898 29.0704 65.0563 28.919 65.2379 28.8181C65.4196 28.7223 65.6214 28.6718 65.8484 28.6718C66.2217 28.6718 66.5194 28.7879 66.7414 29.0149C66.9634 29.2419 67.0693 29.5547 67.0693 29.9432V32.3245H65.354V30.5335C65.354 30.3569 65.3338 30.2358 65.2985 30.1702C65.2632 30.1047 65.1976 30.0744 65.1068 30.0744C65.0059 30.0744 64.9302 30.1147 64.8797 30.1904C64.8293 30.2661 64.804 30.3821 64.804 30.5385V32.3296H63.0685V28.7879ZM68.0178 32.3245V30.0946H67.5285V28.7879H68.0178V27.6123H69.7332V28.7879H70.2226V30.0946H69.7332V32.3245H68.0178ZM74.7077 30.7605C74.7128 30.7353 74.7128 30.6899 74.7128 30.6394C74.7128 30.4427 74.6876 30.2409 74.6371 30.0542C74.5867 29.8776 74.511 29.7111 74.405 29.5648C74.2133 29.2823 73.956 29.0553 73.6533 28.9039C73.3355 28.7475 72.9873 28.6718 72.6342 28.6769C72.3567 28.6769 72.0994 28.7172 71.8623 28.7979C71.6251 28.8787 71.4132 28.9998 71.2215 29.1662C71.0147 29.3428 70.8482 29.5547 70.7321 29.8019C70.6161 30.0441 70.5606 30.3065 70.5606 30.5739C70.5606 30.8412 70.6161 31.0935 70.7321 31.3357C70.8482 31.5778 71.0096 31.7897 71.2215 31.9764C71.4082 32.1379 71.6251 32.2589 71.8623 32.3397C72.0994 32.4204 72.3567 32.4658 72.6291 32.4658C73.1236 32.4658 73.5373 32.3649 73.8753 32.158C74.2133 31.9512 74.4555 31.6586 74.5917 31.2751L73.0025 31.1742C72.9672 31.26 72.9218 31.3256 72.8612 31.371C72.8007 31.4164 72.73 31.4366 72.6544 31.4366C72.5232 31.4366 72.4223 31.3912 72.3567 31.3054C72.2911 31.2146 72.2608 31.0834 72.2608 30.9018V30.8463L74.7077 30.8412C74.7027 30.816 74.7027 30.7908 74.7077 30.7605ZM75.2375 32.3245V28.7879H76.9125V29.2823C77.0588 29.0805 77.2253 28.9241 77.4069 28.8232C77.5886 28.7223 77.7904 28.6718 78.0073 28.6718H78.083C78.0905 28.6718 78.0981 28.6731 78.1057 28.6743C78.1133 28.6756 78.1208 28.6769 78.1284 28.6769V30.3922C78.0477 30.3468 77.9568 30.3065 77.866 30.2762C77.7954 30.251 77.7248 30.2409 77.6491 30.2409C77.4322 30.2409 77.2606 30.3014 77.1446 30.4175C77.0285 30.5385 76.968 30.705 76.968 30.9169V32.3245H75.2375ZM78.6581 28.7879H80.3331V29.2722C80.4794 29.0704 80.6459 28.919 80.8276 28.8181C81.0142 28.7172 81.2211 28.6668 81.433 28.6718C81.8114 28.6718 82.109 28.7879 82.326 29.0149C82.548 29.2419 82.6539 29.5547 82.6539 29.9432V32.3245H80.9386V30.5335C80.9386 30.3569 80.9184 30.2358 80.8831 30.1702C80.8477 30.1047 80.7822 30.0744 80.6913 30.0744C80.5904 30.0744 80.5148 30.1147 80.4643 30.1904C80.4139 30.2661 80.3886 30.3821 80.3886 30.5385V32.3296H78.6581V28.7879ZM87.4065 32.3245V28.7879H85.7567V29.252C85.6255 29.0704 85.454 28.919 85.2572 28.808C85.0756 28.7122 84.8688 28.6617 84.6619 28.6668C84.2381 28.6668 83.895 28.8434 83.6327 29.1915C83.3703 29.5396 83.2392 30.0037 83.2392 30.5789C83.2392 31.1288 83.3754 31.5778 83.6428 31.926C83.9102 32.2741 84.2532 32.4507 84.6619 32.4507C84.8889 32.4507 85.0907 32.3952 85.2825 32.2892C85.4691 32.1782 85.6508 32.0117 85.8173 31.7847V32.3195L87.4065 32.3245ZM88.3651 32.3245V30.0946H87.8757V28.7879H88.3651V27.6123H90.0804V28.7879H90.5698V30.0946H90.0804V32.3245H88.3651ZM92.8957 27.688C92.8957 27.9403 92.8099 28.1421 92.6434 28.2934C92.4769 28.4397 92.2499 28.5154 91.9673 28.5154C91.6798 28.5154 91.4527 28.4397 91.2862 28.2884C91.1197 28.137 91.034 27.9352 91.034 27.688C91.034 27.4357 91.1197 27.239 91.2862 27.0977C91.4527 26.9514 91.6798 26.8808 91.9724 26.8808C92.26 26.8808 92.487 26.9514 92.6484 27.0977C92.8099 27.239 92.8957 27.4357 92.8957 27.688ZM91.0996 32.3245V28.7879H92.8149V32.3245H91.0996ZM97.406 29.7918C97.29 29.5497 97.1286 29.3327 96.9217 29.1612C96.73 28.9998 96.5181 28.8787 96.281 28.7929C96.0438 28.7071 95.7865 28.6668 95.5091 28.6668C95.2316 28.6668 94.9743 28.7071 94.7371 28.7879C94.2427 28.9594 93.8391 29.3176 93.607 29.7868C93.491 30.029 93.4355 30.2913 93.4355 30.5587C93.4355 30.8261 93.491 31.0834 93.607 31.3256C93.7231 31.5728 93.8845 31.7847 94.0964 31.9613C94.2881 32.1227 94.5 32.2438 94.7371 32.3296C94.9844 32.4153 95.2467 32.4557 95.5091 32.4557C95.7865 32.4557 96.0438 32.4153 96.281 32.3296C96.5181 32.2438 96.73 32.1278 96.9167 31.9663C97.1286 31.7797 97.29 31.5678 97.406 31.3256C97.5221 31.0834 97.5776 30.8312 97.5776 30.5638C97.5776 30.2964 97.517 30.034 97.406 29.7918ZM98.1527 28.7879H99.8277V29.2722C99.974 29.0704 100.141 28.919 100.322 28.8181C100.504 28.7223 100.706 28.6718 100.933 28.6718C101.306 28.6718 101.604 28.7879 101.826 29.0149C102.048 29.2419 102.154 29.5547 102.154 29.9432V32.3245H100.438V30.5335C100.438 30.3569 100.423 30.2358 100.383 30.1702C100.347 30.1047 100.282 30.0744 100.191 30.0744C100.09 30.0744 100.014 30.1147 99.9589 30.1904C99.9034 30.2661 99.8832 30.3821 99.8832 30.5385V32.3296H98.1527V28.7879ZM106.901 32.3245V28.7879H105.251V29.252C105.1 29.0502 104.933 28.9039 104.752 28.808C104.57 28.7122 104.363 28.6617 104.157 28.6668C103.733 28.6668 103.39 28.8434 103.127 29.1915C102.865 29.5396 102.734 30.0037 102.734 30.5789C102.734 31.1288 102.87 31.5778 103.137 31.926C103.405 32.2741 103.748 32.4507 104.157 32.4507C104.384 32.4507 104.59 32.3952 104.777 32.2892C104.964 32.1782 105.14 32.0117 105.312 31.7847V32.3195L106.901 32.3245ZM107.663 32.3245V27.022H109.378V32.3245H107.663ZM52.075 12.5827H47.2216L48.8966 15.9479C47.1005 15.5695 45.7383 13.6372 45.7383 11.3164C45.7383 8.7181 47.4436 6.61426 49.5424 6.61426C51.6412 6.61426 53.3464 8.7181 53.3464 11.3164C53.3464 12.2548 53.1244 13.1276 52.736 13.8642L52.075 12.5827ZM86.902 16.412C88.0573 16.412 88.9907 15.4787 88.9907 14.3233C88.9604 13.168 88.0018 12.2598 86.8515 12.285C85.7365 12.3153 84.8435 13.2083 84.8133 14.3233C84.8133 15.4787 85.7466 16.412 86.902 16.412ZM113.004 1.31653C112.076 1.31653 111.324 2.06826 111.324 2.99658C111.324 3.92489 112.076 4.67662 113.004 4.67662C113.933 4.67662 114.684 3.91984 114.684 2.99658C114.684 2.07331 113.933 1.31653 113.004 1.31653Z" fill="black"/>
<path fill-rule="evenodd" clip-rule="evenodd" d="M113.231 3.08792H112.535L112.53 4.0011H112.242V1.87708H113.226C113.574 1.87708 113.922 1.99816 113.922 2.44718C113.922 2.75998 113.766 2.87602 113.63 2.95675C113.751 3.0072 113.872 3.05765 113.882 3.35531L113.902 3.73875C113.907 3.85479 113.917 3.9002 114.008 3.95065V3.99605H113.66C113.62 3.86992 113.609 3.54703 113.609 3.46631C113.609 3.28973 113.574 3.08792 113.231 3.08792ZM113.248 2.11926H112.531V2.84072H113.197C113.409 2.84072 113.631 2.78523 113.631 2.47243C113.631 2.14449 113.389 2.11926 113.248 2.11926Z" fill="black"/>
</svg>
