<?xml version="1.0" encoding="utf-8"?><svg xmlns="http://www.w3.org/2000/svg" xmlns:xlink="http://www.w3.org/1999/xlink"><symbol viewBox="0 0 22 24" id="basket" xmlns="http://www.w3.org/2000/svg"><g clip-path="url(#aa)"><path d="M10.363 18.443a2.046 2.046 0 00-2.045 2.042 2.046 2.046 0 004.09 0 2.046 2.046 0 00-2.045-2.042zm6.134 0a2.046 2.046 0 00-2.045 2.042 2.046 2.046 0 004.089 0 2.046 2.046 0 00-2.044-2.042zm3.978-8.199L7.413 6.891a.614.614 0 00-.75.73L8.67 16.4h-.786L5.482 5.895a.613.613 0 00-.474-.464l-4.27-.882A.614.614 0 00.489 5.75l3.885.802L6.797 17.15a.613.613 0 00.598.477h12.07a.615.615 0 00.607-.53l.858-6.175a.613.613 0 00-.455-.678zm-8.14 3.91a.613.613 0 01-1.227 0v-2.696a.613.613 0 011.227 0v2.696zm2.625 0a.613.613 0 01-1.227 0v-1.88a.613.613 0 011.227 0v1.88zm2.625 0a.613.613 0 01-1.227 0v-1.226a.613.613 0 011.227 0v1.226z"/></g><path fill-rule="evenodd" clip-rule="evenodd" d="M16.268 4.568a2.996 2.996 0 00-1.693-.523c-.627 0-1.21.193-1.693.523-.28-.843-.492-1.752-.492-2.383C12.39.98 13.37 0 14.575 0s2.185.98 2.185 2.185c0 .631-.212 1.54-.492 2.383zm-4.722 2.274l.024.006v-.011l-.024.005zm4.972 1.217c-1.333-.33-2.766-.681-4.129-1.013a2.185 2.185 0 114.129 1.013zm4.436 1.103c-.866-.217-2.155-.538-3.618-.9a2.995 2.995 0 00.243-1.425c.87.18 1.762.45 2.308.765.596.344.969.928 1.067 1.56zM9.869 6.439c-.36-.086-.706-.167-1.03-.243a2.19 2.19 0 01-.376-2.667 2.188 2.188 0 013.147-.7c.098.738.338 1.599.61 2.353a3.01 3.01 0 00-.449.774c-.628.113-1.305.278-1.902.483zm10.124.075a3.43 3.43 0 01-.217.114c-.696-.295-1.587-.526-2.397-.672a3.01 3.01 0 00-.449-.774c.262-.727.494-1.553.599-2.273.095-.067.189-.128.278-.18a2.188 2.188 0 012.986.8 2.188 2.188 0 01-.8 2.985z"/><defs><clipPath id="aa"><path transform="translate(0 3.064)" d="M0 0h20.936v20.936H0z"/></clipPath></defs></symbol><symbol viewBox="0 0 344.96 344.96" id="check" xmlns="http://www.w3.org/2000/svg"><g data-name="Слой 2"><path class="bcls-1" d="M321.85 86.24l-40-23.11-23.1-40H212.5L172.48 0l-40 23.11H86.24l-23.11 40-40 23.1v46.21L0 172.48l23.11 40v46.21l40 23.11 23.11 40h46.21l40 23.1 40-23.11h46.21l23.11-40 40-23.11V212.5l23.11-40-23.11-40V86.24zM156.91 243.07a16.79 16.79 0 01-23.34 0l-50.45-50.44a16.19 16.19 0 010-22.89l13.35-13.35a16.19 16.19 0 0122.89 0l25.87 25.87 80.34-80.35a16.19 16.19 0 0122.89 0l13.35 13.35a16.19 16.19 0 010 22.89z" data-name="Capa 1"/></g></symbol><symbol viewBox="0 0 21 24" id="design-logo" xmlns="http://www.w3.org/2000/svg"><path d="M9.089 17.41c0 3.738-2.532 5.78-6.089 6.209 1.92-1.4 2.3-4.019 2.3-6.259V3.294A23.283 23.283 0 009.105 0v5.65a11.562 11.562 0 01-2.812 2.585h2.796v9.175zM16.684 0a11.4 11.4 0 00-3.773 3.294v14.05c0 3.739 2.532 5.78 6.089 6.21-1.92-1.4-2.3-4.02-2.3-6.26L16.684 0z"/></symbol><symbol viewBox="0 0 24 24" id="fb" xmlns="http://www.w3.org/2000/svg"><circle cx="12" cy="12" r="10.5"/><path d="M15.91 15.211l.467-2.963h-2.918v-1.923c0-.81.407-1.602 1.714-1.602H16.5V6.2S15.296 6 14.145 6c-2.404 0-3.974 1.42-3.974 3.989v2.259H7.5v2.963h2.671v7.165a10.856 10.856 0 003.288 0V15.21h2.451z"/></symbol><symbol viewBox="0 0 24 24" id="instagram" xmlns="http://www.w3.org/2000/svg"><rect x="1.5" y="1.5" width="21" height="21" rx="6"/><rect x="1.5" y="1.5" width="21" height="21" rx="6"/><rect x="1.5" y="1.5" width="21" height="21" rx="6"/><path d="M17.25 7.875a1.125 1.125 0 11-2.25 0 1.125 1.125 0 012.25 0z"/><path fill-rule="evenodd" clip-rule="evenodd" d="M12 15.75a3.75 3.75 0 100-7.5 3.75 3.75 0 000 7.5zm0-1.5a2.25 2.25 0 100-4.5 2.25 2.25 0 000 4.5z"/><path fill-rule="evenodd" clip-rule="evenodd" d="M4.5 11.7c0-2.52 0-3.78.49-4.743A4.5 4.5 0 016.957 4.99C7.92 4.5 9.18 4.5 11.7 4.5h.6c2.52 0 3.78 0 4.743.49a4.5 4.5 0 011.966 1.967c.491.963.491 2.223.491 4.743v.6c0 2.52 0 3.78-.49 4.743a4.5 4.5 0 01-1.967 1.966c-.963.491-2.223.491-4.743.491h-.6c-2.52 0-3.78 0-4.743-.49a4.5 4.5 0 01-1.967-1.967C4.5 16.08 4.5 14.82 4.5 12.3v-.6zM11.7 6h.6c1.285 0 2.158.001 2.833.056.658.054.994.151 1.229.271a3 3 0 011.311 1.311c.12.235.217.57.27 1.229C18 9.542 18 10.415 18 11.7v.6c0 1.285-.001 2.158-.056 2.833-.054.658-.151.994-.271 1.229a3 3 0 01-1.311 1.311c-.235.12-.57.217-1.229.27C14.458 18 13.585 18 12.3 18h-.6c-1.285 0-2.158-.001-2.833-.056-.658-.054-.994-.151-1.229-.271a3 3 0 01-1.311-1.311c-.12-.235-.217-.57-.27-1.229C6 14.458 6 13.585 6 12.3v-.6c0-1.285.001-2.158.056-2.833.054-.658.151-.994.271-1.229a3 3 0 011.311-1.311c.235-.12.57-.217 1.229-.27C9.542 6 10.415 6 11.7 6z"/><defs><radialGradient id="ea" cx="0" cy="0" r="1" gradientUnits="userSpaceOnUse" gradientTransform="rotate(-55.376 20.937 .05) scale(19.1397)"><stop stop-color="#B13589"/><stop offset=".793" stop-color="#C62F94"/><stop offset="1" stop-color="#8A3AC8"/></radialGradient><radialGradient id="eb" cx="0" cy="0" r="1" gradientUnits="userSpaceOnUse" gradientTransform="rotate(-65.136 22.325 5.167) scale(16.9457)"><stop stop-color="#E0E8B7"/><stop offset=".445" stop-color="#FB8A2E"/><stop offset=".715" stop-color="#E2425C"/><stop offset="1" stop-color="#E2425C" stop-opacity="0"/></radialGradient></defs></symbol><symbol viewBox="0 0 80 80" id="sInterested-icon-1" xmlns="http://www.w3.org/2000/svg"><path fill-rule="evenodd" clip-rule="evenodd" d="M64.319 0l15.678 15.678c-13.95 13.95-27.95 27.996-41.855 41.91l-21.49 5.758 5.74-21.419L64.318 0zM32.935 52.423l-5.36-5.36-1.962 7.322 7.322-1.962zm5.157-3.803l32.942-32.942-6.714-6.715-32.943 32.942 6.715 6.715z"/><path fill-rule="evenodd" clip-rule="evenodd" d="M77.374 38.7V80H0V2.624h41.287V8.96H6.337v64.703h64.7V38.7h6.337z"/></symbol><symbol viewBox="0 0 80 80" id="sInterested-icon-2" xmlns="http://www.w3.org/2000/svg"><path fill-rule="evenodd" clip-rule="evenodd" d="M63.69 0h-6.6v4.078H22.91V0h-6.6v4.078H0V80h53.542L80 53.542V4.078H63.69V0zm-8.157 68.794V55.532h13.26l-13.26 13.262zm-6.599-19.86v24.467H6.6V31.066h66.802v17.868H48.934zm-32.623-34.18h6.599v-4.077h34.18v4.077h6.6v-4.077h9.71v13.79H6.6v-13.79h9.712v4.077z"/><path fill-rule="evenodd" clip-rule="evenodd" d="M32.623 40.777v6.6h6.599v-6.6h-6.599zm-16.313 0v6.6h6.6v-6.6h-6.6zm0 16.313v6.598h6.6V57.09h-6.6z"/></symbol><symbol viewBox="0 0 56 80" id="sInterested-icon-3" xmlns="http://www.w3.org/2000/svg"><path d="M55.85 0H0v80h55.85V0zm-6.668 73.334H6.667L6.666 6.666h42.516v66.668z"/><path d="M33.839 16.37H22.01V9.706h11.83v6.666zm-5.913 53.632a3.333 3.333 0 100-6.666 3.333 3.333 0 000 6.666z"/></symbol><symbol viewBox="0 0 16 16" id="telegram" xmlns="http://www.w3.org/2000/svg"><path d="M14.629 3.698l-2.012 9.618c-.152.679-.548.848-1.11.528l-3.066-2.29-1.48 1.442c-.163.166-.3.305-.616.305l.22-3.165 5.683-5.204c.247-.223-.054-.347-.384-.123L4.839 9.29l-3.024-.959c-.658-.208-.67-.667.137-.986L13.78 2.727c.548-.208 1.027.124.849.971z"/></symbol><symbol viewBox="0 0 24 24" id="twitter-logo" xmlns="http://www.w3.org/2000/svg"><path d="M8.842 21c-2.427 0-4.688-.706-6.592-1.923 1.616.104 4.469-.146 6.243-1.838-2.67-.123-3.873-2.17-4.03-3.045.227.088 1.308.193 1.919-.052-3.07-.77-3.541-3.464-3.436-4.286.575.402 1.552.542 1.936.507-2.86-2.047-1.832-5.126-1.326-5.79 2.053 2.843 5.13 4.44 8.936 4.53a4.398 4.398 0 01-.11-.98 4.367 4.367 0 014.362-4.373c1.258 0 2.392.535 3.188 1.39.84-.197 2.106-.659 2.725-1.058-.312 1.12-1.283 2.054-1.87 2.4.005.012-.005-.012 0 0 .516-.078 1.912-.346 2.463-.72-.273.629-1.302 1.675-2.147 2.26C21.26 14.953 15.957 21 8.842 21z"/></symbol><symbol viewBox="0 0 16 16" id="viber" xmlns="http://www.w3.org/2000/svg"><path d="M8 1.335c-1.071.013-3.374.19-4.662 1.37-.958.948-1.292 2.35-1.331 4.084-.033 1.728-.072 4.973 3.058 5.856v1.346s-.02.538.337.648c.438.14.688-.275 1.105-.72l.778-.879c2.142.178 3.782-.232 3.97-.293.435-.139 2.883-.451 3.283-3.696.41-3.351-.2-5.463-1.301-6.418h-.007c-.332-.306-1.668-1.279-4.652-1.29 0 0-.222-.014-.578-.008zm.037.942a7.02 7.02 0 01.488.011c2.527.007 3.732.767 4.017 1.023.927.794 1.405 2.697 1.055 5.495-.332 2.713-2.317 2.885-2.685 3.002-.156.05-1.6.406-3.42.289 0 0-1.356 1.634-1.78 2.055-.067.074-.146.095-.196.085-.071-.018-.093-.107-.089-.229l.013-2.233c-2.655-.733-2.498-3.5-2.47-4.946.033-1.446.304-2.628 1.113-3.43 1.088-.982 3.043-1.115 3.953-1.122zm.2 1.446a.166.166 0 100 .332 3.136 3.136 0 012.242.883c.606.588.9 1.378.912 2.411 0 .092.074.167.167.167V7.51a.167.167 0 00.168-.165 3.588 3.588 0 00-1.009-2.646c-.66-.645-1.496-.977-2.48-.977zm-2.198.382a.523.523 0 00-.342.067H5.69a2.61 2.61 0 00-.637.523 1.003 1.003 0 00-.256.525.71.71 0 00.026.302l.01.006c.172.504.396.988.67 1.444a8.48 8.48 0 001.29 1.762l.015.022.024.017.015.018.017.015c.532.505 1.127.94 1.769 1.295.734.4 1.18.588 1.447.667v.004c.078.024.15.034.221.034.228-.016.444-.109.613-.262a2.53 2.53 0 00.517-.638v-.004c.128-.241.085-.469-.1-.623-.37-.323-.77-.61-1.195-.857-.285-.155-.574-.061-.69.095l-.25.315c-.129.156-.361.134-.361.134l-.007.004C7.093 8.527 6.63 6.772 6.63 6.772s-.022-.239.139-.36l.312-.252c.15-.122.254-.41.094-.695a7.498 7.498 0 00-.856-1.194.475.475 0 00-.28-.167zm2.486.495c-.221 0-.221.334.003.334A2.098 2.098 0 0110 5.572 1.94 1.94 0 0110.5 7a.168.168 0 00.167.165l.007.009a.169.169 0 00.167-.167c.015-.662-.191-1.218-.595-1.663C9.84 4.9 9.273 4.65 8.549 4.6h-.024zm.274.898c-.228-.006-.236.335-.01.341.55.029.816.306.851.877a.166.166 0 00.165.163h.007a.168.168 0 00.16-.178c-.039-.744-.445-1.164-1.166-1.202H8.8z"/></symbol><symbol viewBox="0 0 24 24" id="vk" xmlns="http://www.w3.org/2000/svg"><path d="M21.579 6.855c.14-.465 0-.806-.662-.806h-2.193c-.558 0-.813.295-.953.619 0 0-1.115 2.719-2.695 4.482-.51.513-.743.675-1.021.675-.139 0-.341-.162-.341-.627V6.855c0-.558-.161-.806-.626-.806H9.642c-.348 0-.558.258-.558.504 0 .528.79.65.871 2.138v3.228c0 .707-.127.836-.407.836-.743 0-2.551-2.73-3.624-5.853-.209-.607-.42-.852-.98-.852H2.752c-.627 0-.752.295-.752.619 0 .582.743 3.462 3.461 7.27 1.812 2.602 4.363 4.012 6.687 4.012 1.393 0 1.565-.313 1.565-.853v-1.966c0-.626.133-.752.574-.752.324 0 .882.164 2.183 1.417 1.486 1.486 1.732 2.153 2.567 2.153h2.192c.626 0 .939-.313.759-.931-.197-.615-.907-1.51-1.849-2.57-.512-.603-1.277-1.253-1.51-1.578-.325-.42-.231-.604 0-.976.001 0 2.672-3.761 2.95-5.04z"/></symbol><symbol viewBox="0 0 24 24" id="whatsapp" xmlns="http://www.w3.org/2000/svg"><g clip-path="url(#ma)"><path fill-rule="evenodd" clip-rule="evenodd" d="M20.503 3.488A11.901 11.901 0 0012.05 0C5.464 0 .103 5.335.1 11.892c0 2.096.55 4.142 1.595 5.945L0 24l6.335-1.654a11.986 11.986 0 005.71 1.448h.005c6.586 0 11.947-5.335 11.95-11.893a11.792 11.792 0 00-3.497-8.413zm-3.005 10.894c-.298-.149-1.766-.867-2.04-.967-.274-.099-.473-.148-.672.15-.199.297-.771.966-.945 1.164-.174.199-.349.223-.647.075-.299-.15-1.26-.463-2.401-1.475-.888-.788-1.487-1.761-1.661-2.059-.175-.297-.019-.458.13-.606.135-.133.3-.347.448-.52.15-.174.2-.298.299-.497.1-.198.05-.372-.025-.52-.075-.149-.672-1.612-.92-2.207-.243-.579-.489-.5-.672-.51-.174-.008-.374-.01-.573-.01a1.1 1.1 0 00-.796.372c-.273.297-1.045 1.016-1.045 2.479 0 1.462 1.07 2.875 1.22 3.074.149.198 2.105 3.2 5.1 4.487a17.22 17.22 0 001.702.626c.716.226 1.367.194 1.881.117.574-.085 1.767-.719 2.015-1.413.25-.694.25-1.289.174-1.413-.074-.124-.273-.198-.572-.347z"/></g><defs><clipPath id="ma"><path d="M0 0h24v24H0z"/></clipPath></defs></symbol></svg>