<svg width="64" height="64" viewBox="0 0 64 64" fill="none" xmlns="http://www.w3.org/2000/svg">
<path fill-rule="evenodd" clip-rule="evenodd" d="M51.4553 0C55.6367 4.18065 59.8174 8.36213 63.998 12.5428C52.8373 23.7027 41.6373 34.9395 30.5143 46.0699L13.3223 50.6766L17.9134 33.5419C29.0921 22.3632 40.2757 11.1804 51.4553 0ZM26.3484 41.9384L22.0604 37.6505L20.4907 43.5081L26.3484 41.9384ZM30.4742 38.8957L56.8279 12.542L51.4561 7.17011L25.1023 33.5239L30.4742 38.8957Z" fill="white"/>
<path fill-rule="evenodd" clip-rule="evenodd" d="M61.8996 30.9604V64.0001H0C0 43.3663 0 22.7326 0 2.09888H33.0299V7.16842H5.06955C5.06955 24.4227 5.06955 41.6762 5.06955 58.9305C29.9839 58.9305 40.1869 58.9305 56.83 58.9305V30.9604H61.8996Z" fill="white"/>
</svg>
