<svg width="80" height="80" viewBox="0 0 80 80" fill="none" xmlns="http://www.w3.org/2000/svg">
<path fill-rule="evenodd" clip-rule="evenodd" d="M63.6892 0H57.0903V4.07795H22.9097V0H16.3108V4.07795H0V80H53.5424L80 53.5424V4.07795H63.6892V0ZM55.5333 68.7942V55.5323H68.7931L55.5333 68.7942ZM48.9344 48.9344V73.4011H6.59895V31.0656H73.4011V48.9344H48.9344ZM16.3108 14.7538H22.9097V10.6769H57.0903V14.7538H63.6892V10.6769H73.4011V24.4667H6.59895V10.6769H16.3108V14.7538Z" fill="white"/>
<path fill-rule="evenodd" clip-rule="evenodd" d="M32.623 40.7773V47.3763H39.222V40.7773H32.623Z" fill="white"/>
<path fill-rule="evenodd" clip-rule="evenodd" d="M16.3105 40.7773V47.3763H22.9095V40.7773H16.3105Z" fill="white"/>
<path fill-rule="evenodd" clip-rule="evenodd" d="M16.3105 57.0895V63.6884H22.9095V57.0895H16.3105Z" fill="white"/>
</svg>
