<svg width="56" height="80" viewBox="0 0 56 80" fill="none" xmlns="http://www.w3.org/2000/svg">
<path d="M55.8507 0H0C0 26.667 0 53.333 0 80H55.8497C55.8497 53.333 55.8507 26.667 55.8507 0ZM49.1816 73.334H6.66702C6.66702 51.5045 6.66596 30.8375 6.66596 6.66596H49.1816C49.1816 30.3568 49.1816 51.4209 49.1816 73.334Z" fill="white"/>
<path d="M33.8387 16.3707H22.0112V9.70471H33.8387V16.3707Z" fill="white"/>
<path d="M27.9262 70.0018C29.767 70.0018 31.2592 68.5095 31.2592 66.6688C31.2592 64.828 29.767 63.3358 27.9262 63.3358C26.0855 63.3358 24.5933 64.828 24.5933 66.6688C24.5933 68.5095 26.0855 70.0018 27.9262 70.0018Z" fill="white"/>
</svg>
