<svg width="80" height="80" viewBox="0 0 80 80" fill="none" xmlns="http://www.w3.org/2000/svg">
<path fill-rule="evenodd" clip-rule="evenodd" d="M64.3186 0C69.5454 5.22582 74.7712 10.4527 79.9971 15.6785C66.0462 29.6283 52.0462 43.6744 38.1424 57.5874L16.6523 63.3457L22.3912 41.9274C36.3646 27.954 50.3442 13.9754 64.3186 0ZM32.935 52.423L27.5751 47.0631L25.6129 54.3852L32.935 52.423ZM38.0922 48.6197L71.0344 15.6775L64.3196 8.96264L31.3774 41.9048L38.0922 48.6197Z" fill="white"/>
<path fill-rule="evenodd" clip-rule="evenodd" d="M77.3745 38.7004V80H0C0 54.2079 0 28.4157 0 2.62354H41.2873V8.96047H6.33693C6.33693 30.5284 6.33693 52.0952 6.33693 73.6631C37.4799 73.6631 50.2336 73.6631 71.0375 73.6631V38.7004H77.3745Z" fill="white"/>
</svg>
